{
  "asset": {
    "generator": "glTF-Transform v4.1.1",
    "version": "2.0"
  },
  "accessors": [
    {
      "type": "SCALAR",
      "componentType": 5126,
      "count": 25,
      "max": [
        1
      ],
      "min": [
        0
      ],
      "bufferView": 0,
      "byteOffset": 0
    },
    {
      "type": "VEC3",
      "componentType": 5126,
      "count": 25,
      "bufferView": 0,
      "byteOffset": 100
    },
    {
      "type": "VEC4",
      "componentType": 5126,
      "count": 25,
      "bufferView": 0,
      "byteOffset": 400
    },
    {
      "type": "VEC4",
      "componentType": 5126,
      "count": 25,
      "bufferView": 0,
      "byteOffset": 800
    },
    {
      "type": "VEC4",
      "componentType": 5126,
      "count": 25,
      "bufferView": 0,
      "byteOffset": 1200
    },
    {
      "type": "SCALAR",
      "componentType": 5126,
      "count": 17,
      "max": [
        1
      ],
      "min": [
        0
      ],
      "bufferView": 0,
      "byteOffset": 1600
    },
    {
      "type": "VEC4",
      "componentType": 5126,
      "count": 17,
      "bufferView": 0,
      "byteOffset": 1668
    },
    {
      "type": "SCALAR",
      "componentType": 5126,
      "count": 17,
      "max": [
        1
      ],
      "min": [
        0
      ],
      "bufferView": 0,
      "byteOffset": 1940
    },
    {
      "type": "VEC3",
      "componentType": 5126,
      "count": 17,
      "bufferView": 0,
      "byteOffset": 2008
    },
    {
      "type": "SCALAR",
      "componentType": 5126,
      "count": 37,
      "max": [
        2
      ],
      "min": [
        0
      ],
      "bufferView": 0,
      "byteOffset": 2212
    },
    {
      "type": "VEC4",
      "componentType": 5126,
      "count": 37,
      "bufferView": 0,
      "byteOffset": 2360
    },
    {
      "type": "SCALAR",
      "componentType": 5126,
      "count": 26,
      "max": [
        2
      ],
      "min": [
        0
      ],
      "bufferView": 0,
      "byteOffset": 2952
    },
    {
      "type": "VEC3",
      "componentType": 5126,
      "count": 26,
      "bufferView": 0,
      "byteOffset": 3056
    },
    {
      "type": "SCALAR",
      "componentType": 5126,
      "count": 18,
      "max": [
        2
      ],
      "min": [
        0
      ],
      "bufferView": 0,
      "byteOffset": 3368
    },
    {
      "type": "VEC4",
      "componentType": 5126,
      "count": 18,
      "bufferView": 0,
      "byteOffset": 3440
    },
    {
      "type": "SCALAR",
      "componentType": 5126,
      "count": 35,
      "max": [
        2
      ],
      "min": [
        0
      ],
      "bufferView": 0,
      "byteOffset": 3728
    },
    {
      "type": "VEC4",
      "componentType": 5126,
      "count": 35,
      "bufferView": 0,
      "byteOffset": 3868
    },
    {
      "type": "SCALAR",
      "componentType": 5126,
      "count": 35,
      "max": [
        2
      ],
      "min": [
        0
      ],
      "bufferView": 0,
      "byteOffset": 4428
    },
    {
      "type": "VEC4",
      "componentType": 5126,
      "count": 35,
      "bufferView": 0,
      "byteOffset": 4568
    },
    {
      "type": "SCALAR",
      "componentType": 5126,
      "count": 14,
      "max": [
        1
      ],
      "min": [
        0
      ],
      "bufferView": 0,
      "byteOffset": 5128
    },
    {
      "type": "VEC4",
      "componentType": 5126,
      "count": 14,
      "bufferView": 0,
      "byteOffset": 5184
    },
    {
      "type": "SCALAR",
      "componentType": 5126,
      "count": 15,
      "max": [
        1
      ],
      "min": [
        0
      ],
      "bufferView": 0,
      "byteOffset": 5408
    },
    {
      "type": "VEC4",
      "componentType": 5126,
      "count": 15,
      "bufferView": 0,
      "byteOffset": 5468
    },
    {
      "type": "SCALAR",
      "componentType": 5126,
      "count": 21,
      "max": [
        1
      ],
      "min": [
        0
      ],
      "bufferView": 0,
      "byteOffset": 5708
    },
    {
      "type": "VEC3",
      "componentType": 5126,
      "count": 21,
      "bufferView": 0,
      "byteOffset": 5792
    },
    {
      "type": "VEC3",
      "componentType": 5126,
      "count": 21,
      "bufferView": 0,
      "byteOffset": 6044
    },
    {
      "type": "SCALAR",
      "componentType": 5123,
      "count": 36,
      "bufferView": 1,
      "byteOffset": 0
    },
    {
      "type": "VEC3",
      "componentType": 5126,
      "count": 24,
      "max": [
        0.125,
        0.4375,
        0.03125
      ],
      "min": [
        -0.125,
        0,
        -0.03125
      ],
      "bufferView": 2,
      "byteOffset": 0
    },
    {
      "type": "VEC3",
      "componentType": 5126,
      "count": 24,
      "bufferView": 2,
      "byteOffset": 12
    },
    {
      "type": "VEC2",
      "componentType": 5126,
      "count": 24,
      "bufferView": 2,
      "byteOffset": 24
    },
    {
      "type": "VEC2",
      "componentType": 5126,
      "count": 24,
      "bufferView": 3,
      "byteOffset": 0
    },
    {
      "type": "VEC3",
      "componentType": 5126,
      "count": 24,
      "max": [
        0.375,
        0.5,
        0.4375
      ],
      "min": [
        -0.25,
        0,
        -0.0625
      ],
      "bufferView": 4,
      "byteOffset": 0
    },
    {
      "type": "VEC2",
      "componentType": 5126,
      "count": 24,
      "bufferView": 4,
      "byteOffset": 12
    },
    {
      "type": "VEC3",
      "componentType": 5126,
      "count": 24,
      "max": [
        0.1875,
        0.1875,
        0.4375
      ],
      "min": [
        -0.1875,
        0,
        0.3125
      ],
      "bufferView": 5,
      "byteOffset": 0
    },
    {
      "type": "VEC2",
      "componentType": 5126,
      "count": 24,
      "bufferView": 5,
      "byteOffset": 12
    },
    {
      "type": "VEC3",
      "componentType": 5126,
      "count": 24,
      "max": [
        0.15625,
        0.1875,
        0.1875
      ],
      "min": [
        -0.15625,
        -0.125,
        -0.0625
      ],
      "bufferView": 6,
      "byteOffset": 0
    },
    {
      "type": "VEC2",
      "componentType": 5126,
      "count": 24,
      "bufferView": 6,
      "byteOffset": 12
    },
    {
      "type": "VEC3",
      "componentType": 5126,
      "count": 24,
      "max": [
        0.25,
        0.3125,
        0.25
      ],
      "min": [
        -0.25,
        -0.1875,
        -0.5
      ],
      "bufferView": 7,
      "byteOffset": 0
    },
    {
      "type": "VEC2",
      "componentType": 5126,
      "count": 24,
      "bufferView": 7,
      "byteOffset": 12
    },
    {
      "type": "VEC3",
      "componentType": 5126,
      "count": 24,
      "max": [
        0.09375,
        0.234375,
        0.15625
      ],
      "min": [
        -0.09375,
        -0.140625,
        -0.15625
      ],
      "bufferView": 8,
      "byteOffset": 0
    },
    {
      "type": "VEC2",
      "componentType": 5126,
      "count": 24,
      "bufferView": 8,
      "byteOffset": 12
    },
    {
      "type": "VEC3",
      "componentType": 5126,
      "count": 24,
      "max": [
        0.09375,
        0.046875,
        -0.15625
      ],
      "min": [
        -0.09375,
        -0.140625,
        -0.34375
      ],
      "bufferView": 9,
      "byteOffset": 0
    },
    {
      "type": "VEC2",
      "componentType": 5126,
      "count": 24,
      "bufferView": 9,
      "byteOffset": 12
    },
    {
      "type": "VEC2",
      "componentType": 5126,
      "count": 24,
      "bufferView": 10,
      "byteOffset": 0
    },
    {
      "type": "VEC2",
      "componentType": 5126,
      "count": 24,
      "bufferView": 11,
      "byteOffset": 0
    },
    {
      "type": "VEC3",
      "componentType": 5126,
      "count": 24,
      "max": [
        0.109375,
        0.09375,
        0.0625
      ],
      "min": [
        -0.109375,
        -0.09375,
        -0.25
      ],
      "bufferView": 12,
      "byteOffset": 0
    },
    {
      "type": "VEC2",
      "componentType": 5126,
      "count": 24,
      "bufferView": 12,
      "byteOffset": 12
    },
    {
      "type": "VEC2",
      "componentType": 5126,
      "count": 24,
      "bufferView": 13,
      "byteOffset": 0
    }
  ],
  "bufferViews": [
    {
      "buffer": 0,
      "byteOffset": 0,
      "byteLength": 6296
    },
    {
      "buffer": 0,
      "byteOffset": 6296,
      "byteLength": 72,
      "target": 34963
    },
    {
      "buffer": 0,
      "byteOffset": 6368,
      "byteLength": 768,
      "byteStride": 32,
      "target": 34962
    },
    {
      "buffer": 0,
      "byteOffset": 7136,
      "byteLength": 192,
      "byteStride": 8,
      "target": 34962
    },
    {
      "buffer": 0,
      "byteOffset": 7328,
      "byteLength": 480,
      "byteStride": 20,
      "target": 34962
    },
    {
      "buffer": 0,
      "byteOffset": 7808,
      "byteLength": 480,
      "byteStride": 20,
      "target": 34962
    },
    {
      "buffer": 0,
      "byteOffset": 8288,
      "byteLength": 480,
      "byteStride": 20,
      "target": 34962
    },
    {
      "buffer": 0,
      "byteOffset": 8768,
      "byteLength": 480,
      "byteStride": 20,
      "target": 34962
    },
    {
      "buffer": 0,
      "byteOffset": 9248,
      "byteLength": 480,
      "byteStride": 20,
      "target": 34962
    },
    {
      "buffer": 0,
      "byteOffset": 9728,
      "byteLength": 480,
      "byteStride": 20,
      "target": 34962
    },
    {
      "buffer": 0,
      "byteOffset": 10208,
      "byteLength": 192,
      "byteStride": 8,
      "target": 34962
    },
    {
      "buffer": 0,
      "byteOffset": 10400,
      "byteLength": 192,
      "byteStride": 8,
      "target": 34962
    },
    {
      "buffer": 0,
      "byteOffset": 10592,
      "byteLength": 480,
      "byteStride": 20,
      "target": 34962
    },
    {
      "buffer": 0,
      "byteOffset": 11072,
      "byteLength": 192,
      "byteStride": 8,
      "target": 34962
    }
  ],
  "samplers": [
    {
      "magFilter": 9728,
      "minFilter": 9728,
      "wrapS": 33071,
      "wrapT": 33071
    }
  ],
  "textures": [
    {
      "source": 0,
      "sampler": 0
    }
  ],
  "images": [
    {
      "mimeType": "image/png",
      "uri": "baseColor.png"
    }
  ],
  "buffers": [
    {
      "uri": "rabbit-named-nodes.bin",
      "byteLength": 11264
    }
  ],
  "materials": [
    {
      "alphaMode": "MASK",
      "alphaCutoff": 0.05,
      "doubleSided": true,
      "pbrMetallicRoughness": {
        "metallicFactor": 0,
        "baseColorTexture": {
          "index": 0
        }
      }
    }
  ],
  "meshes": [
    {
      "primitives": [
        {
          "attributes": {
            "POSITION": 27,
            "NORMAL": 28,
            "TEXCOORD_0": 29
          },
          "mode": 4,
          "material": 0,
          "indices": 26
        }
      ]
    },
    {
      "primitives": [
        {
          "attributes": {
            "TEXCOORD_0": 30,
            "POSITION": 27,
            "NORMAL": 28
          },
          "mode": 4,
          "material": 0,
          "indices": 26
        }
      ]
    },
    {
      "primitives": [
        {
          "attributes": {
            "POSITION": 31,
            "TEXCOORD_0": 32,
            "NORMAL": 28
          },
          "mode": 4,
          "material": 0,
          "indices": 26
        }
      ]
    },
    {
      "primitives": [
        {
          "attributes": {
            "POSITION": 33,
            "TEXCOORD_0": 34,
            "NORMAL": 28
          },
          "mode": 4,
          "material": 0,
          "indices": 26
        }
      ]
    },
    {
      "primitives": [
        {
          "attributes": {
            "POSITION": 35,
            "TEXCOORD_0": 36,
            "NORMAL": 28
          },
          "mode": 4,
          "material": 0,
          "indices": 26
        }
      ]
    },
    {
      "primitives": [
        {
          "attributes": {
            "POSITION": 37,
            "TEXCOORD_0": 38,
            "NORMAL": 28
          },
          "mode": 4,
          "material": 0,
          "indices": 26
        }
      ]
    },
    {
      "primitives": [
        {
          "attributes": {
            "POSITION": 39,
            "TEXCOORD_0": 40,
            "NORMAL": 28
          },
          "mode": 4,
          "material": 0,
          "indices": 26
        }
      ]
    },
    {
      "primitives": [
        {
          "attributes": {
            "POSITION": 41,
            "TEXCOORD_0": 42,
            "NORMAL": 28
          },
          "mode": 4,
          "material": 0,
          "indices": 26
        }
      ]
    },
    {
      "primitives": [
        {
          "attributes": {
            "TEXCOORD_0": 43,
            "POSITION": 39,
            "NORMAL": 28
          },
          "mode": 4,
          "material": 0,
          "indices": 26
        }
      ]
    },
    {
      "primitives": [
        {
          "attributes": {
            "TEXCOORD_0": 44,
            "POSITION": 41,
            "NORMAL": 28
          },
          "mode": 4,
          "material": 0,
          "indices": 26
        }
      ]
    },
    {
      "primitives": [
        {
          "attributes": {
            "POSITION": 45,
            "TEXCOORD_0": 46,
            "NORMAL": 28
          },
          "mode": 4,
          "material": 0,
          "indices": 26
        }
      ]
    },
    {
      "primitives": [
        {
          "attributes": {
            "TEXCOORD_0": 47,
            "POSITION": 45,
            "NORMAL": 28
          },
          "mode": 4,
          "material": 0,
          "indices": 26
        }
      ]
    }
  ],
  "nodes": [
    {
      "name": "cube",
      "mesh": 0
    },
    {
      "name": "ear_right",
      "children": [
        0
      ]
    },
    {
      "name": "ear_right_ext",
      "translation": [
        0.15625,
        0.4375,
        -0.15625
      ],
      "children": [
        1
      ]
    },
    {
      "name": "cube",
      "mesh": 1
    },
    {
      "name": "ear_left",
      "children": [
        3
      ]
    },
    {
      "name": "ear_left_ext",
      "translation": [
        -0.15625,
        0.4375,
        -0.15625
      ],
      "children": [
        4
      ]
    },
    {
      "name": "cube",
      "translation": [
        -0.0625,
        -0.0625,
        -0.375
      ],
      "mesh": 2
    },
    {
      "name": "cube",
      "translation": [
        0,
        -0.0625,
        -0.875
      ],
      "mesh": 3
    },
    {
      "name": "head",
      "children": [
        2,
        5,
        6,
        7
      ]
    },
    {
      "name": "head_ext",
      "translation": [
        0,
        0.125,
        -0.1875
      ],
      "children": [
        8
      ]
    },
    {
      "name": "cube",
      "mesh": 4
    },
    {
      "name": "tail",
      "children": [
        10
      ]
    },
    {
      "name": "tail_ext",
      "translation": [
        0,
        0.1875,
        0.3125
      ],
      "children": [
        11
      ]
    },
    {
      "name": "cube",
      "translation": [
        0,
        -0.0625,
        0.125
      ],
      "mesh": 5
    },
    {
      "name": "body",
      "children": [
        9,
        12,
        13
      ]
    },
    {
      "name": "cube",
      "mesh": 6
    },
    {
      "name": "cube",
      "mesh": 7
    },
    {
      "name": "leg_back_left",
      "children": [
        15,
        16
      ]
    },
    {
      "name": "leg_back_left_ext",
      "translation": [
        -0.28125,
        -0.171875,
        0.15625
      ],
      "children": [
        17
      ]
    },
    {
      "name": "cube",
      "mesh": 8
    },
    {
      "name": "cube",
      "mesh": 9
    },
    {
      "name": "leg_back_right",
      "children": [
        19,
        20
      ]
    },
    {
      "name": "leg_back_right_ext",
      "translation": [
        0.28125,
        -0.171875,
        0.15625
      ],
      "children": [
        21
      ]
    },
    {
      "name": "cube",
      "mesh": 10
    },
    {
      "name": "leg_front_right",
      "children": [
        23
      ]
    },
    {
      "name": "leg_front_right_ext",
      "translation": [
        0.171875,
        -0.21875,
        -0.3125
      ],
      "children": [
        24
      ]
    },
    {
      "name": "cube",
      "mesh": 11
    },
    {
      "name": "leg_front_left",
      "children": [
        26
      ]
    },
    {
      "name": "leg_front_left_ext",
      "translation": [
        -0.171875,
        -0.21875,
        -0.3125
      ],
      "children": [
        27
      ]
    },
    {
      "name": "legs",
      "children": [
        18,
        22,
        25,
        28
      ]
    },
    {
      "name": "body_main",
      "children": [
        14,
        29
      ]
    },
    {
      "name": "body_orbit",
      "translation": [
        0,
        0.3125,
        0.0625
      ],
      "children": [
        30
      ]
    }
  ],
  "animations": [
    {
      "name": "idle",
      "samplers": [
        {
          "input": 9,
          "output": 10,
          "interpolation": "LINEAR"
        },
        {
          "input": 11,
          "output": 12,
          "interpolation": "LINEAR"
        },
        {
          "input": 13,
          "output": 14,
          "interpolation": "LINEAR"
        },
        {
          "input": 15,
          "output": 16,
          "interpolation": "LINEAR"
        },
        {
          "input": 17,
          "output": 18,
          "interpolation": "LINEAR"
        }
      ],
      "channels": [
        {
          "sampler": 0,
          "target": {
            "node": 14,
            "path": "rotation"
          }
        },
        {
          "sampler": 1,
          "target": {
            "node": 14,
            "path": "translation"
          }
        },
        {
          "sampler": 2,
          "target": {
            "node": 8,
            "path": "rotation"
          }
        },
        {
          "sampler": 3,
          "target": {
            "node": 1,
            "path": "rotation"
          }
        },
        {
          "sampler": 4,
          "target": {
            "node": 4,
            "path": "rotation"
          }
        }
      ]
    },
    {
      "name": "hop",
      "samplers": [
        {
          "input": 19,
          "output": 20,
          "interpolation": "LINEAR"
        },
        {
          "input": 0,
          "output": 1,
          "interpolation": "LINEAR"
        },
        {
          "input": 21,
          "output": 22,
          "interpolation": "LINEAR"
        },
        {
          "input": 0,
          "output": 2,
          "interpolation": "LINEAR"
        },
        {
          "input": 0,
          "output": 3,
          "interpolation": "LINEAR"
        },
        {
          "input": 0,
          "output": 4,
          "interpolation": "LINEAR"
        },
        {
          "input": 23,
          "output": 24,
          "interpolation": "LINEAR"
        },
        {
          "input": 0,
          "output": 4,
          "interpolation": "LINEAR"
        },
        {
          "input": 23,
          "output": 25,
          "interpolation": "LINEAR"
        },
        {
          "input": 5,
          "output": 6,
          "interpolation": "LINEAR"
        },
        {
          "input": 7,
          "output": 8,
          "interpolation": "LINEAR"
        },
        {
          "input": 5,
          "output": 6,
          "interpolation": "LINEAR"
        },
        {
          "input": 7,
          "output": 8,
          "interpolation": "LINEAR"
        }
      ],
      "channels": [
        {
          "sampler": 0,
          "target": {
            "node": 30,
            "path": "rotation"
          }
        },
        {
          "sampler": 1,
          "target": {
            "node": 30,
            "path": "translation"
          }
        },
        {
          "sampler": 2,
          "target": {
            "node": 8,
            "path": "rotation"
          }
        },
        {
          "sampler": 3,
          "target": {
            "node": 1,
            "path": "rotation"
          }
        },
        {
          "sampler": 4,
          "target": {
            "node": 4,
            "path": "rotation"
          }
        },
        {
          "sampler": 5,
          "target": {
            "node": 18,
            "path": "rotation"
          }
        },
        {
          "sampler": 6,
          "target": {
            "node": 18,
            "path": "translation"
          }
        },
        {
          "sampler": 7,
          "target": {
            "node": 22,
            "path": "rotation"
          }
        },
        {
          "sampler": 8,
          "target": {
            "node": 22,
            "path": "translation"
          }
        },
        {
          "sampler": 9,
          "target": {
            "node": 24,
            "path": "rotation"
          }
        },
        {
          "sampler": 10,
          "target": {
            "node": 24,
            "path": "translation"
          }
        },
        {
          "sampler": 11,
          "target": {
            "node": 27,
            "path": "rotation"
          }
        },
        {
          "sampler": 12,
          "target": {
            "node": 27,
            "path": "translation"
          }
        }
      ]
    }
  ],
  "scenes": [
    {
      "name": "blockbench_export",
      "nodes": [
        31
      ]
    }
  ],
  "scene": 0
}