{
  "asset": {
    "generator": "glTF-Transform v4.1.1",
    "version": "2.0"
  },
  "accessors": [
    {
      "type": "SCALAR",
      "componentType": 5126,
      "count": 18,
      "max": [
        1
      ],
      "min": [
        0
      ],
      "bufferView": 0,
      "byteOffset": 0
    },
    {
      "type": "VEC4",
      "componentType": 5126,
      "count": 18,
      "bufferView": 0,
      "byteOffset": 72
    },
    {
      "type": "SCALAR",
      "componentType": 5126,
      "count": 25,
      "max": [
        1
      ],
      "min": [
        0
      ],
      "bufferView": 0,
      "byteOffset": 360
    },
    {
      "type": "VEC4",
      "componentType": 5126,
      "count": 25,
      "bufferView": 0,
      "byteOffset": 460
    },
    {
      "type": "VEC4",
      "componentType": 5126,
      "count": 25,
      "bufferView": 0,
      "byteOffset": 860
    },
    {
      "type": "VEC4",
      "componentType": 5126,
      "count": 25,
      "bufferView": 0,
      "byteOffset": 1260
    },
    {
      "type": "VEC4",
      "componentType": 5126,
      "count": 25,
      "bufferView": 0,
      "byteOffset": 1660
    },
    {
      "type": "VEC4",
      "componentType": 5126,
      "count": 25,
      "bufferView": 0,
      "byteOffset": 2060
    },
    {
      "type": "VEC4",
      "componentType": 5126,
      "count": 25,
      "bufferView": 0,
      "byteOffset": 2460
    },
    {
      "type": "VEC4",
      "componentType": 5126,
      "count": 1,
      "bufferView": 0,
      "byteOffset": 2860
    },
    {
      "type": "VEC4",
      "componentType": 5126,
      "count": 1,
      "bufferView": 0,
      "byteOffset": 2876
    },
    {
      "type": "SCALAR",
      "componentType": 5126,
      "count": 35,
      "max": [
        3
      ],
      "min": [
        0
      ],
      "bufferView": 0,
      "byteOffset": 2892
    },
    {
      "type": "VEC4",
      "componentType": 5126,
      "count": 35,
      "bufferView": 0,
      "byteOffset": 3032
    },
    {
      "type": "SCALAR",
      "componentType": 5126,
      "count": 35,
      "max": [
        3
      ],
      "min": [
        0
      ],
      "bufferView": 0,
      "byteOffset": 3592
    },
    {
      "type": "VEC3",
      "componentType": 5126,
      "count": 35,
      "bufferView": 0,
      "byteOffset": 3732
    },
    {
      "type": "SCALAR",
      "componentType": 5126,
      "count": 28,
      "max": [
        3
      ],
      "min": [
        0
      ],
      "bufferView": 0,
      "byteOffset": 4152
    },
    {
      "type": "VEC4",
      "componentType": 5126,
      "count": 28,
      "bufferView": 0,
      "byteOffset": 4264
    },
    {
      "type": "SCALAR",
      "componentType": 5126,
      "count": 26,
      "max": [
        3
      ],
      "min": [
        0
      ],
      "bufferView": 0,
      "byteOffset": 4712
    },
    {
      "type": "VEC4",
      "componentType": 5126,
      "count": 26,
      "bufferView": 0,
      "byteOffset": 4816
    },
    {
      "type": "SCALAR",
      "componentType": 5126,
      "count": 66,
      "max": [
        3
      ],
      "min": [
        0
      ],
      "bufferView": 0,
      "byteOffset": 5232
    },
    {
      "type": "VEC3",
      "componentType": 5126,
      "count": 66,
      "bufferView": 0,
      "byteOffset": 5496
    },
    {
      "type": "SCALAR",
      "componentType": 5126,
      "count": 43,
      "max": [
        3
      ],
      "min": [
        0
      ],
      "bufferView": 0,
      "byteOffset": 6288
    },
    {
      "type": "VEC4",
      "componentType": 5126,
      "count": 43,
      "bufferView": 0,
      "byteOffset": 6460
    },
    {
      "type": "VEC4",
      "componentType": 5126,
      "count": 26,
      "bufferView": 0,
      "byteOffset": 7148
    },
    {
      "type": "VEC3",
      "componentType": 5126,
      "count": 66,
      "bufferView": 0,
      "byteOffset": 7564
    },
    {
      "type": "VEC4",
      "componentType": 5126,
      "count": 26,
      "bufferView": 0,
      "byteOffset": 8356
    },
    {
      "type": "VEC3",
      "componentType": 5126,
      "count": 66,
      "bufferView": 0,
      "byteOffset": 8772
    },
    {
      "type": "VEC4",
      "componentType": 5126,
      "count": 26,
      "bufferView": 0,
      "byteOffset": 9564
    },
    {
      "type": "VEC3",
      "componentType": 5126,
      "count": 66,
      "bufferView": 0,
      "byteOffset": 9980
    },
    {
      "type": "VEC4",
      "componentType": 5126,
      "count": 26,
      "bufferView": 0,
      "byteOffset": 10772
    },
    {
      "type": "VEC3",
      "componentType": 5126,
      "count": 66,
      "bufferView": 0,
      "byteOffset": 11188
    },
    {
      "type": "VEC4",
      "componentType": 5126,
      "count": 26,
      "bufferView": 0,
      "byteOffset": 11980
    },
    {
      "type": "VEC3",
      "componentType": 5126,
      "count": 66,
      "bufferView": 0,
      "byteOffset": 12396
    },
    {
      "type": "SCALAR",
      "componentType": 5126,
      "count": 15,
      "max": [
        1
      ],
      "min": [
        0
      ],
      "bufferView": 0,
      "byteOffset": 13188
    },
    {
      "type": "VEC3",
      "componentType": 5126,
      "count": 15,
      "bufferView": 0,
      "byteOffset": 13248
    },
    {
      "type": "SCALAR",
      "componentType": 5126,
      "count": 1,
      "max": [
        0
      ],
      "min": [
        0
      ]
    },
    {
      "type": "SCALAR",
      "componentType": 5123,
      "count": 144,
      "bufferView": 1,
      "byteOffset": 0
    },
    {
      "type": "SCALAR",
      "componentType": 5123,
      "count": 36,
      "bufferView": 1,
      "byteOffset": 288
    },
    {
      "type": "SCALAR",
      "componentType": 5123,
      "count": 72,
      "bufferView": 1,
      "byteOffset": 360
    },
    {
      "type": "VEC3",
      "componentType": 5126,
      "count": 96,
      "max": [
        0.65625,
        1.6875,
        1.15625
      ],
      "min": [
        -0.21875,
        0.8125,
        0.15625
      ],
      "bufferView": 2,
      "byteOffset": 0
    },
    {
      "type": "VEC3",
      "componentType": 5126,
      "count": 96,
      "bufferView": 2,
      "byteOffset": 12
    },
    {
      "type": "VEC2",
      "componentType": 5126,
      "count": 96,
      "bufferView": 2,
      "byteOffset": 24
    },
    {
      "type": "VEC3",
      "componentType": 5126,
      "count": 24,
      "max": [
        0.625,
        1.3125,
        1
      ],
      "min": [
        -0.375,
        0.4375,
        0.1875
      ],
      "bufferView": 3,
      "byteOffset": 0
    },
    {
      "type": "VEC2",
      "componentType": 5126,
      "count": 24,
      "bufferView": 3,
      "byteOffset": 12
    },
    {
      "type": "VEC3",
      "componentType": 5126,
      "count": 24,
      "bufferView": 3,
      "byteOffset": 20
    },
    {
      "type": "VEC3",
      "componentType": 5126,
      "count": 48,
      "max": [
        1.8203125,
        1.34375,
        -0.20937499403953552
      ],
      "min": [
        1.2578125,
        0.46875,
        -0.4593749940395355
      ],
      "bufferView": 4,
      "byteOffset": 0
    },
    {
      "type": "VEC2",
      "componentType": 5126,
      "count": 48,
      "bufferView": 4,
      "byteOffset": 12
    },
    {
      "type": "VEC3",
      "componentType": 5126,
      "count": 48,
      "bufferView": 4,
      "byteOffset": 20
    },
    {
      "type": "VEC3",
      "componentType": 5126,
      "count": 48,
      "max": [
        -1.2578125,
        1.34375,
        -0.20937499403953552
      ],
      "min": [
        -1.8203125,
        0.46875,
        -0.4593749940395355
      ],
      "bufferView": 5,
      "byteOffset": 0
    },
    {
      "type": "VEC2",
      "componentType": 5126,
      "count": 48,
      "bufferView": 5,
      "byteOffset": 12
    }
  ],
  "bufferViews": [
    {
      "buffer": 0,
      "byteOffset": 0,
      "byteLength": 13428
    },
    {
      "buffer": 0,
      "byteOffset": 13428,
      "byteLength": 504,
      "target": 34963
    },
    {
      "buffer": 0,
      "byteOffset": 13932,
      "byteLength": 3072,
      "byteStride": 32,
      "target": 34962
    },
    {
      "buffer": 0,
      "byteOffset": 17004,
      "byteLength": 768,
      "byteStride": 32,
      "target": 34962
    },
    {
      "buffer": 0,
      "byteOffset": 17772,
      "byteLength": 1536,
      "byteStride": 32,
      "target": 34962
    },
    {
      "buffer": 0,
      "byteOffset": 19308,
      "byteLength": 960,
      "byteStride": 20,
      "target": 34962
    }
  ],
  "samplers": [
    {
      "magFilter": 9728,
      "minFilter": 9728,
      "wrapS": 33071,
      "wrapT": 33071
    }
  ],
  "textures": [
    {
      "source": 0,
      "sampler": 0
    }
  ],
  "images": [
    {
      "mimeType": "image/png",
      "uri": "baseColor.png"
    }
  ],
  "buffers": [
    {
      "uri": "spider.bin",
      "byteLength": 20268
    }
  ],
  "materials": [
    {
      "alphaMode": "MASK",
      "alphaCutoff": 0.05,
      "doubleSided": true,
      "pbrMetallicRoughness": {
        "metallicFactor": 0,
        "baseColorTexture": {
          "index": 0
        }
      }
    }
  ],
  "meshes": [
    {
      "primitives": [
        {
          "attributes": {
            "POSITION": 39,
            "NORMAL": 40,
            "TEXCOORD_0": 41
          },
          "mode": 4,
          "material": 0,
          "indices": 36
        }
      ]
    },
    {
      "primitives": [
        {
          "attributes": {
            "POSITION": 42,
            "TEXCOORD_0": 43,
            "NORMAL": 44
          },
          "mode": 4,
          "material": 0,
          "indices": 37
        }
      ]
    },
    {
      "primitives": [
        {
          "attributes": {
            "POSITION": 45,
            "TEXCOORD_0": 46,
            "NORMAL": 47
          },
          "mode": 4,
          "material": 0,
          "indices": 38
        }
      ]
    },
    {
      "primitives": [
        {
          "attributes": {
            "POSITION": 45,
            "NORMAL": 47,
            "TEXCOORD_0": 46
          },
          "mode": 4,
          "material": 0,
          "indices": 38
        }
      ]
    },
    {
      "primitives": [
        {
          "attributes": {
            "POSITION": 48,
            "TEXCOORD_0": 49,
            "NORMAL": 47
          },
          "mode": 4,
          "material": 0,
          "indices": 38
        }
      ]
    },
    {
      "primitives": [
        {
          "attributes": {
            "POSITION": 48,
            "NORMAL": 47,
            "TEXCOORD_0": 49
          },
          "mode": 4,
          "material": 0,
          "indices": 38
        }
      ]
    },
    {
      "primitives": [
        {
          "attributes": {
            "POSITION": 45,
            "NORMAL": 47,
            "TEXCOORD_0": 46
          },
          "mode": 4,
          "material": 0,
          "indices": 38
        }
      ]
    },
    {
      "primitives": [
        {
          "attributes": {
            "POSITION": 48,
            "NORMAL": 47,
            "TEXCOORD_0": 49
          },
          "mode": 4,
          "material": 0,
          "indices": 38
        }
      ]
    }
  ],
  "nodes": [
    {
      "name": "cube",
      "translation": [
        -0.21875,
        -1.46484375,
        -0.625
      ],
      "mesh": 0
    },
    {
      "name": "head",
      "children": [
        0
      ]
    },
    {
      "name": "head_ext",
      "translation": [
        0,
        0.42578125,
        -0.421875
      ],
      "children": [
        1
      ]
    },
    {
      "name": "cube",
      "translation": [
        -0.125,
        -0.4765625,
        -0.140625
      ],
      "mesh": 1
    },
    {
      "name": "body",
      "translation": [
        0,
        -0.3125,
        -0.1875
      ],
      "children": [
        2,
        3
      ]
    },
    {
      "name": "cube",
      "translation": [
        -1.7578125,
        -1.234375,
        0.334375
      ],
      "mesh": 2
    },
    {
      "name": "leg_left_1",
      "translation": [
        0.03125,
        0.140625,
        -0.3125
      ],
      "rotation": [
        0,
        0,
        -0.17364817766693033,
        0.984807753012208
      ],
      "children": [
        5
      ]
    },
    {
      "name": "cube",
      "translation": [
        -1.7578125,
        -1.234375,
        0.334375
      ],
      "mesh": 6
    },
    {
      "name": "leg_left_2",
      "translation": [
        0.03125,
        0.140625,
        0
      ],
      "rotation": [
        0,
        0,
        -0.19509032201612825,
        0.9807852804032304
      ],
      "children": [
        7
      ]
    },
    {
      "name": "cube",
      "translation": [
        -1.7578125,
        -1.234375,
        0.334375
      ],
      "mesh": 3
    },
    {
      "name": "leg_left_3",
      "translation": [
        0.03125,
        0.140625,
        0.3125
      ],
      "rotation": [
        0,
        0,
        -0.19509032201612825,
        0.9807852804032304
      ],
      "children": [
        9
      ]
    },
    {
      "name": "legs_left",
      "translation": [
        -0.40625,
        0.46875,
        -0.125
      ],
      "children": [
        6,
        8,
        10
      ]
    },
    {
      "name": "cube",
      "translation": [
        1.7578125,
        -1.234375,
        0.334375
      ],
      "mesh": 4
    },
    {
      "name": "leg_right_1",
      "translation": [
        -0.03125,
        0.140625,
        -0.3125
      ],
      "rotation": [
        0,
        0,
        0.19509032201612825,
        0.9807852804032304
      ],
      "children": [
        12
      ]
    },
    {
      "name": "cube",
      "translation": [
        1.7578125,
        -1.234375,
        0.334375
      ],
      "mesh": 7
    },
    {
      "name": "leg_right_2",
      "translation": [
        -0.03125,
        0.140625,
        0
      ],
      "rotation": [
        0,
        0,
        0.19509032201612825,
        0.9807852804032304
      ],
      "children": [
        14
      ]
    },
    {
      "name": "cube",
      "translation": [
        1.7578125,
        -1.234375,
        0.334375
      ],
      "mesh": 5
    },
    {
      "name": "leg_right_3",
      "translation": [
        -0.03125,
        0.140625,
        0.3125
      ],
      "rotation": [
        0,
        0,
        0.19509032201612825,
        0.9807852804032304
      ],
      "children": [
        16
      ]
    },
    {
      "name": "legs_right",
      "translation": [
        0.40625,
        0.46875,
        -0.125
      ],
      "children": [
        13,
        15,
        17
      ]
    },
    {
      "name": "body_main",
      "translation": [
        0,
        0.5703125,
        0.296875
      ],
      "children": [
        4
      ]
    }
  ],
  "animations": [
    {
      "name": "idle",
      "samplers": [
        {
          "input": 11,
          "output": 12,
          "interpolation": "LINEAR"
        },
        {
          "input": 13,
          "output": 14,
          "interpolation": "LINEAR"
        },
        {
          "input": 15,
          "output": 16,
          "interpolation": "LINEAR"
        },
        {
          "input": 17,
          "output": 18,
          "interpolation": "LINEAR"
        },
        {
          "input": 19,
          "output": 20,
          "interpolation": "LINEAR"
        },
        {
          "input": 21,
          "output": 22,
          "interpolation": "LINEAR"
        },
        {
          "input": 17,
          "output": 23,
          "interpolation": "LINEAR"
        },
        {
          "input": 19,
          "output": 24,
          "interpolation": "LINEAR"
        },
        {
          "input": 17,
          "output": 25,
          "interpolation": "LINEAR"
        },
        {
          "input": 19,
          "output": 26,
          "interpolation": "LINEAR"
        },
        {
          "input": 17,
          "output": 27,
          "interpolation": "LINEAR"
        },
        {
          "input": 19,
          "output": 28,
          "interpolation": "LINEAR"
        },
        {
          "input": 17,
          "output": 29,
          "interpolation": "LINEAR"
        },
        {
          "input": 19,
          "output": 30,
          "interpolation": "LINEAR"
        },
        {
          "input": 17,
          "output": 31,
          "interpolation": "LINEAR"
        },
        {
          "input": 19,
          "output": 32,
          "interpolation": "LINEAR"
        }
      ],
      "channels": [
        {
          "sampler": 0,
          "target": {
            "node": 4,
            "path": "rotation"
          }
        },
        {
          "sampler": 1,
          "target": {
            "node": 4,
            "path": "translation"
          }
        },
        {
          "sampler": 2,
          "target": {
            "node": 1,
            "path": "rotation"
          }
        },
        {
          "sampler": 3,
          "target": {
            "node": 6,
            "path": "rotation"
          }
        },
        {
          "sampler": 4,
          "target": {
            "node": 6,
            "path": "translation"
          }
        },
        {
          "sampler": 5,
          "target": {
            "node": 2,
            "path": "rotation"
          }
        },
        {
          "sampler": 6,
          "target": {
            "node": 8,
            "path": "rotation"
          }
        },
        {
          "sampler": 7,
          "target": {
            "node": 8,
            "path": "translation"
          }
        },
        {
          "sampler": 8,
          "target": {
            "node": 10,
            "path": "rotation"
          }
        },
        {
          "sampler": 9,
          "target": {
            "node": 10,
            "path": "translation"
          }
        },
        {
          "sampler": 10,
          "target": {
            "node": 13,
            "path": "rotation"
          }
        },
        {
          "sampler": 11,
          "target": {
            "node": 13,
            "path": "translation"
          }
        },
        {
          "sampler": 12,
          "target": {
            "node": 15,
            "path": "rotation"
          }
        },
        {
          "sampler": 13,
          "target": {
            "node": 15,
            "path": "translation"
          }
        },
        {
          "sampler": 14,
          "target": {
            "node": 17,
            "path": "rotation"
          }
        },
        {
          "sampler": 15,
          "target": {
            "node": 17,
            "path": "translation"
          }
        }
      ]
    },
    {
      "name": "walk",
      "samplers": [
        {
          "input": 0,
          "output": 1,
          "interpolation": "LINEAR"
        },
        {
          "input": 33,
          "output": 34,
          "interpolation": "LINEAR"
        },
        {
          "input": 2,
          "output": 3,
          "interpolation": "LINEAR"
        },
        {
          "input": 2,
          "output": 4,
          "interpolation": "LINEAR"
        },
        {
          "input": 2,
          "output": 5,
          "interpolation": "LINEAR"
        },
        {
          "input": 2,
          "output": 6,
          "interpolation": "LINEAR"
        },
        {
          "input": 2,
          "output": 7,
          "interpolation": "LINEAR"
        },
        {
          "input": 2,
          "output": 8,
          "interpolation": "LINEAR"
        }
      ],
      "channels": [
        {
          "sampler": 0,
          "target": {
            "node": 4,
            "path": "rotation"
          }
        },
        {
          "sampler": 1,
          "target": {
            "node": 4,
            "path": "translation"
          }
        },
        {
          "sampler": 2,
          "target": {
            "node": 6,
            "path": "rotation"
          }
        },
        {
          "sampler": 3,
          "target": {
            "node": 8,
            "path": "rotation"
          }
        },
        {
          "sampler": 4,
          "target": {
            "node": 10,
            "path": "rotation"
          }
        },
        {
          "sampler": 5,
          "target": {
            "node": 13,
            "path": "rotation"
          }
        },
        {
          "sampler": 6,
          "target": {
            "node": 15,
            "path": "rotation"
          }
        },
        {
          "sampler": 7,
          "target": {
            "node": 17,
            "path": "rotation"
          }
        }
      ]
    },
    {
      "name": "admiring",
      "samplers": [
        {
          "input": 35,
          "output": 9,
          "interpolation": "LINEAR"
        },
        {
          "input": 35,
          "output": 10,
          "interpolation": "LINEAR"
        }
      ],
      "channels": [
        {
          "sampler": 0,
          "target": {
            "node": 4,
            "path": "rotation"
          }
        },
        {
          "sampler": 1,
          "target": {
            "node": 1,
            "path": "rotation"
          }
        }
      ]
    }
  ],
  "scenes": [
    {
      "name": "blockbench_export",
      "nodes": [
        19,
        11,
        18
      ]
    }
  ],
  "scene": 0
}