{
  "asset": {
    "generator": "glTF-Transform v4.1.1",
    "version": "2.0"
  },
  "accessors": [
    {
      "type": "SCALAR",
      "componentType": 5126,
      "count": 6,
      "max": [
        3
      ],
      "min": [
        0
      ],
      "bufferView": 0,
      "byteOffset": 0
    },
    {
      "type": "VEC4",
      "componentType": 5126,
      "count": 6,
      "bufferView": 0,
      "byteOffset": 24
    },
    {
      "type": "SCALAR",
      "componentType": 5126,
      "count": 7,
      "max": [
        2.4583332538604736
      ],
      "min": [
        0
      ],
      "bufferView": 0,
      "byteOffset": 120
    },
    {
      "type": "VEC3",
      "componentType": 5126,
      "count": 7,
      "bufferView": 0,
      "byteOffset": 148
    },
    {
      "type": "SCALAR",
      "componentType": 5126,
      "count": 11,
      "max": [
        3
      ],
      "min": [
        0
      ],
      "bufferView": 0,
      "byteOffset": 232
    },
    {
      "type": "VEC4",
      "componentType": 5126,
      "count": 11,
      "bufferView": 0,
      "byteOffset": 276
    },
    {
      "type": "SCALAR",
      "componentType": 5126,
      "count": 7,
      "max": [
        3
      ],
      "min": [
        0
      ],
      "bufferView": 0,
      "byteOffset": 452
    },
    {
      "type": "VEC4",
      "componentType": 5126,
      "count": 7,
      "bufferView": 0,
      "byteOffset": 480
    },
    {
      "type": "VEC3",
      "componentType": 5126,
      "count": 7,
      "bufferView": 0,
      "byteOffset": 592
    },
    {
      "type": "SCALAR",
      "componentType": 5126,
      "count": 10,
      "max": [
        1.8333333730697632
      ],
      "min": [
        0
      ],
      "bufferView": 0,
      "byteOffset": 676
    },
    {
      "type": "SCALAR",
      "componentType": 5126,
      "count": 43,
      "max": [
        3
      ],
      "min": [
        0
      ],
      "bufferView": 0,
      "byteOffset": 716
    },
    {
      "type": "VEC3",
      "componentType": 5126,
      "count": 43,
      "bufferView": 0,
      "byteOffset": 888
    },
    {
      "type": "VEC3",
      "componentType": 5126,
      "count": 10,
      "sparse": {
        "count": 3,
        "indices": {
          "bufferView": 1,
          "byteOffset": 0,
          "componentType": 5121
        },
        "values": {
          "bufferView": 2,
          "byteOffset": 0
        }
      }
    },
    {
      "type": "SCALAR",
      "componentType": 5123,
      "count": 864,
      "bufferView": 3,
      "byteOffset": 0
    },
    {
      "type": "SCALAR",
      "componentType": 5123,
      "count": 600,
      "bufferView": 3,
      "byteOffset": 1728
    },
    {
      "type": "SCALAR",
      "componentType": 5123,
      "count": 1125,
      "bufferView": 3,
      "byteOffset": 2928
    },
    {
      "type": "SCALAR",
      "componentType": 5123,
      "count": 288,
      "bufferView": 3,
      "byteOffset": 5180
    },
    {
      "type": "SCALAR",
      "componentType": 5123,
      "count": 144,
      "bufferView": 3,
      "byteOffset": 5756
    },
    {
      "type": "SCALAR",
      "componentType": 5123,
      "count": 312,
      "bufferView": 3,
      "byteOffset": 6044
    },
    {
      "type": "VEC3",
      "componentType": 5126,
      "count": 447,
      "max": [
        0.3125,
        1.5499999523162842,
        0.3125
      ],
      "min": [
        -0.3125,
        0.125,
        -0.3125
      ],
      "bufferView": 4,
      "byteOffset": 0
    },
    {
      "type": "VEC3",
      "componentType": 5126,
      "count": 447,
      "bufferView": 4,
      "byteOffset": 12
    },
    {
      "type": "VEC2",
      "componentType": 5126,
      "count": 447,
      "bufferView": 4,
      "byteOffset": 24
    },
    {
      "type": "VEC3",
      "componentType": 5126,
      "count": 408,
      "max": [
        0.2918730676174164,
        0.6252224445343018,
        0.59375
      ],
      "min": [
        -0.6376476883888245,
        -0.6098667979240417,
        -0.59375
      ],
      "bufferView": 5,
      "byteOffset": 0
    },
    {
      "type": "VEC3",
      "componentType": 5126,
      "count": 408,
      "bufferView": 5,
      "byteOffset": 12
    },
    {
      "type": "VEC2",
      "componentType": 5126,
      "count": 408,
      "bufferView": 5,
      "byteOffset": 24
    },
    {
      "type": "VEC3",
      "componentType": 5126,
      "count": 593,
      "max": [
        1.3145924806594849,
        0.84375,
        0.8976196050643921
      ],
      "min": [
        -1.3145924806594849,
        -0.84375,
        -0.9176729917526245
      ],
      "bufferView": 6,
      "byteOffset": 0
    },
    {
      "type": "VEC3",
      "componentType": 5126,
      "count": 593,
      "bufferView": 6,
      "byteOffset": 12
    },
    {
      "type": "VEC2",
      "componentType": 5126,
      "count": 593,
      "bufferView": 6,
      "byteOffset": 24
    },
    {
      "type": "VEC3",
      "componentType": 5126,
      "count": 192,
      "max": [
        1.8250000476837158,
        0.90625,
        1.3096072673797607
      ],
      "min": [
        -0.637499988079071,
        0,
        -0.43460729718208313
      ],
      "bufferView": 7,
      "byteOffset": 0
    },
    {
      "type": "VEC3",
      "componentType": 5126,
      "count": 192,
      "bufferView": 7,
      "byteOffset": 12
    },
    {
      "type": "VEC2",
      "componentType": 5126,
      "count": 192,
      "bufferView": 7,
      "byteOffset": 24
    },
    {
      "type": "VEC3",
      "componentType": 5126,
      "count": 120,
      "max": [
        1.375,
        0.78125,
        0.0625
      ],
      "min": [
        -0.0625,
        -0.28125,
        -0.0625
      ],
      "bufferView": 8,
      "byteOffset": 0
    },
    {
      "type": "VEC3",
      "componentType": 5126,
      "count": 120,
      "bufferView": 8,
      "byteOffset": 12
    },
    {
      "type": "VEC2",
      "componentType": 5126,
      "count": 120,
      "bufferView": 8,
      "byteOffset": 24
    },
    {
      "type": "VEC3",
      "componentType": 5126,
      "count": 204,
      "max": [
        1.59375,
        1.795899748802185,
        0.07566851377487183
      ],
      "min": [
        -0.03125,
        -0.0062500000931322575,
        -1.1665544509887695
      ],
      "bufferView": 9,
      "byteOffset": 0
    },
    {
      "type": "VEC3",
      "componentType": 5126,
      "count": 204,
      "bufferView": 9,
      "byteOffset": 12
    },
    {
      "type": "VEC2",
      "componentType": 5126,
      "count": 204,
      "bufferView": 9,
      "byteOffset": 24
    }
  ],
  "bufferViews": [
    {
      "buffer": 0,
      "byteOffset": 0,
      "byteLength": 1404
    },
    {
      "buffer": 0,
      "byteOffset": 1404,
      "byteLength": 4
    },
    {
      "buffer": 0,
      "byteOffset": 1408,
      "byteLength": 36
    },
    {
      "buffer": 0,
      "byteOffset": 1444,
      "byteLength": 6668,
      "target": 34963
    },
    {
      "buffer": 0,
      "byteOffset": 8112,
      "byteLength": 14304,
      "byteStride": 32,
      "target": 34962
    },
    {
      "buffer": 0,
      "byteOffset": 22416,
      "byteLength": 13056,
      "byteStride": 32,
      "target": 34962
    },
    {
      "buffer": 0,
      "byteOffset": 35472,
      "byteLength": 18976,
      "byteStride": 32,
      "target": 34962
    },
    {
      "buffer": 0,
      "byteOffset": 54448,
      "byteLength": 6144,
      "byteStride": 32,
      "target": 34962
    },
    {
      "buffer": 0,
      "byteOffset": 60592,
      "byteLength": 3840,
      "byteStride": 32,
      "target": 34962
    },
    {
      "buffer": 0,
      "byteOffset": 64432,
      "byteLength": 6528,
      "byteStride": 32,
      "target": 34962
    }
  ],
  "samplers": [
    {
      "magFilter": 9728,
      "minFilter": 9728,
      "wrapS": 33071,
      "wrapT": 33071
    }
  ],
  "textures": [
    {
      "source": 0,
      "sampler": 0
    },
    {
      "source": 1,
      "sampler": 0
    },
    {
      "source": 2,
      "sampler": 0
    }
  ],
  "images": [
    {
      "mimeType": "image/png",
      "uri": "baseColor_1.png"
    },
    {
      "mimeType": "image/png",
      "uri": "baseColor_2.png"
    },
    {
      "mimeType": "image/png",
      "uri": "baseColor_3.png"
    }
  ],
  "buffers": [
    {
      "uri": "payload-bomb.bin",
      "byteLength": 70960
    }
  ],
  "materials": [
    {
      "alphaMode": "MASK",
      "alphaCutoff": 0.05,
      "doubleSided": true,
      "pbrMetallicRoughness": {
        "metallicFactor": 0,
        "baseColorTexture": {
          "index": 0
        }
      }
    },
    {
      "alphaMode": "MASK",
      "alphaCutoff": 0.05,
      "doubleSided": true,
      "pbrMetallicRoughness": {
        "metallicFactor": 0,
        "baseColorTexture": {
          "index": 1
        }
      }
    },
    {
      "alphaMode": "MASK",
      "alphaCutoff": 0.05,
      "doubleSided": true,
      "pbrMetallicRoughness": {
        "metallicFactor": 0,
        "baseColorTexture": {
          "index": 2
        }
      }
    },
    {
      "alphaMode": "MASK",
      "alphaCutoff": 0.05,
      "doubleSided": true,
      "pbrMetallicRoughness": {
        "baseColorFactor": [
          1,
          0.6172065624120635,
          0.013702083043526807,
          1
        ],
        "metallicFactor": 0
      }
    }
  ],
  "meshes": [
    {
      "primitives": [
        {
          "attributes": {
            "POSITION": 19,
            "NORMAL": 20,
            "TEXCOORD_0": 21
          },
          "mode": 4,
          "material": 0,
          "indices": 13
        }
      ]
    },
    {
      "primitives": [
        {
          "attributes": {
            "POSITION": 22,
            "NORMAL": 23,
            "TEXCOORD_0": 24
          },
          "mode": 4,
          "material": 1,
          "indices": 14
        }
      ]
    },
    {
      "primitives": [
        {
          "attributes": {
            "POSITION": 25,
            "NORMAL": 26,
            "TEXCOORD_0": 27
          },
          "mode": 4,
          "material": 1,
          "indices": 15
        }
      ]
    },
    {
      "primitives": [
        {
          "attributes": {
            "POSITION": 28,
            "NORMAL": 29,
            "TEXCOORD_0": 30
          },
          "mode": 4,
          "material": 2,
          "indices": 16
        }
      ]
    },
    {
      "primitives": [
        {
          "attributes": {
            "POSITION": 19,
            "NORMAL": 20,
            "TEXCOORD_0": 21
          },
          "mode": 4,
          "material": 0,
          "indices": 13
        }
      ]
    },
    {
      "primitives": [
        {
          "attributes": {
            "POSITION": 31,
            "NORMAL": 32,
            "TEXCOORD_0": 33
          },
          "mode": 4,
          "material": 0,
          "indices": 17
        }
      ]
    },
    {
      "primitives": [
        {
          "attributes": {
            "POSITION": 34,
            "NORMAL": 35,
            "TEXCOORD_0": 36
          },
          "mode": 4,
          "material": 3,
          "indices": 18
        }
      ]
    }
  ],
  "nodes": [
    {
      "name": "cylinder",
      "translation": [
        0,
        0,
        -1.1875
      ],
      "rotation": [
        0.7071067811865475,
        0,
        0,
        0.7071067811865476
      ],
      "mesh": 4
    },
    {
      "name": "rear_wheels",
      "children": [
        0
      ]
    },
    {
      "name": "cylinder",
      "translation": [
        0,
        -5.551115123125783e-17,
        -0.8374999999999999
      ],
      "rotation": [
        0.7071067811865475,
        0,
        0,
        0.7071067811865476
      ],
      "mesh": 0
    },
    {
      "name": "front_wheels",
      "translation": [
        1.3125,
        5.551115123125783e-17,
        -0.3500000000000001
      ],
      "children": [
        2
      ]
    },
    {
      "name": "tube",
      "translation": [
        0.02791867331407971,
        -0.198918730731521,
        -0.000025381223555359655
      ],
      "rotation": [
        0,
        0,
        -0.625923472184059,
        0.7798844830928818
      ],
      "mesh": 1
    },
    {
      "name": "fins",
      "translation": [
        -0.31870319962611293,
        0.015821939854079092,
        -0.0026947670245781735
      ],
      "rotation": [
        0.013610860973067735,
        0.010923870835191918,
        0.6258281410075169,
        0.7797657029086515
      ],
      "children": [
        4
      ]
    },
    {
      "name": "sphere",
      "translation": [
        1.3012345237256875,
        -0.2506998865029242,
        -0.07533975741158468
      ],
      "rotation": [
        0,
        0,
        -0.08715574274765817,
        0.9961946980917455
      ],
      "mesh": 2
    },
    {
      "name": "bomb",
      "translation": [
        -1.3281113864320326,
        1.3844389121412068,
        0.010413861185639903
      ],
      "children": [
        5,
        6
      ]
    },
    {
      "name": "cart_full",
      "translation": [
        -0.5268768627063452,
        -0.11626097436171734,
        -0.5110562870624936
      ],
      "mesh": 3
    },
    {
      "name": "rear_axel",
      "translation": [
        -0.6206268627063452,
        0.07123902563828266,
        -0.3235562870624936
      ],
      "rotation": [
        0.7071067811865475,
        0,
        0,
        0.7071067811865476
      ],
      "mesh": 5
    },
    {
      "name": "plane",
      "translation": [
        -0.8393768627063452,
        0.8212390256382827,
        -0.9485562870624936
      ],
      "rotation": [
        0.7071067811865475,
        0,
        0,
        0.7071067811865476
      ],
      "mesh": 6
    },
    {
      "name": "cart",
      "translation": [
        0.620626862706345,
        -0.07123902563828266,
        -0.27644371293750647
      ],
      "children": [
        7,
        8,
        9,
        10
      ]
    },
    {
      "name": "root",
      "translation": [
        -0.6562499999999999,
        0.3125,
        0.3500000000000001
      ],
      "children": [
        1,
        3,
        11
      ]
    }
  ],
  "animations": [
    {
      "name": "walk",
      "samplers": [
        {
          "input": 0,
          "output": 1,
          "interpolation": "LINEAR"
        },
        {
          "input": 2,
          "output": 3,
          "interpolation": "LINEAR"
        },
        {
          "input": 4,
          "output": 5,
          "interpolation": "LINEAR"
        },
        {
          "input": 10,
          "output": 11,
          "interpolation": "LINEAR"
        },
        {
          "input": 6,
          "output": 7,
          "interpolation": "LINEAR"
        },
        {
          "input": 6,
          "output": 8,
          "interpolation": "LINEAR"
        },
        {
          "input": 0,
          "output": 1,
          "interpolation": "LINEAR"
        },
        {
          "input": 9,
          "output": 12,
          "interpolation": "LINEAR"
        }
      ],
      "channels": [
        {
          "sampler": 0,
          "target": {
            "node": 3,
            "path": "rotation"
          }
        },
        {
          "sampler": 1,
          "target": {
            "node": 3,
            "path": "translation"
          }
        },
        {
          "sampler": 2,
          "target": {
            "node": 11,
            "path": "rotation"
          }
        },
        {
          "sampler": 3,
          "target": {
            "node": 11,
            "path": "translation"
          }
        },
        {
          "sampler": 4,
          "target": {
            "node": 7,
            "path": "rotation"
          }
        },
        {
          "sampler": 5,
          "target": {
            "node": 7,
            "path": "translation"
          }
        },
        {
          "sampler": 6,
          "target": {
            "node": 1,
            "path": "rotation"
          }
        },
        {
          "sampler": 7,
          "target": {
            "node": 1,
            "path": "translation"
          }
        }
      ]
    }
  ],
  "scenes": [
    {
      "name": "blockbench_export",
      "nodes": [
        12
      ]
    }
  ],
  "scene": 0
}