{
  "asset": {
    "generator": "glTF-Transform v4.1.1",
    "version": "2.0"
  },
  "accessors": [
    {
      "type": "SCALAR",
      "componentType": 5126,
      "count": 25,
      "max": [
        0.5
      ],
      "min": [
        0
      ],
      "bufferView": 0,
      "byteOffset": 0
    },
    {
      "type": "VEC3",
      "componentType": 5126,
      "count": 25,
      "bufferView": 0,
      "byteOffset": 100
    },
    {
      "type": "VEC4",
      "componentType": 5126,
      "count": 25,
      "bufferView": 0,
      "byteOffset": 400
    },
    {
      "type": "VEC4",
      "componentType": 5126,
      "count": 25,
      "bufferView": 0,
      "byteOffset": 800
    },
    {
      "type": "SCALAR",
      "componentType": 5126,
      "count": 18,
      "max": [
        1
      ],
      "min": [
        0
      ],
      "bufferView": 0,
      "byteOffset": 1200
    },
    {
      "type": "VEC4",
      "componentType": 5126,
      "count": 18,
      "bufferView": 0,
      "byteOffset": 1272
    },
    {
      "type": "VEC4",
      "componentType": 5126,
      "count": 18,
      "bufferView": 0,
      "byteOffset": 1560
    },
    {
      "type": "VEC3",
      "componentType": 5126,
      "count": 1,
      "bufferView": 0,
      "byteOffset": 1848
    },
    {
      "type": "SCALAR",
      "componentType": 5126,
      "count": 24,
      "max": [
        0.5
      ],
      "min": [
        0
      ],
      "bufferView": 0,
      "byteOffset": 1860
    },
    {
      "type": "VEC3",
      "componentType": 5126,
      "count": 24,
      "bufferView": 0,
      "byteOffset": 1956
    },
    {
      "type": "VEC4",
      "componentType": 5126,
      "count": 24,
      "bufferView": 0,
      "byteOffset": 2244
    },
    {
      "type": "SCALAR",
      "componentType": 5126,
      "count": 45,
      "max": [
        1
      ],
      "min": [
        0
      ],
      "bufferView": 0,
      "byteOffset": 2628
    },
    {
      "type": "VEC4",
      "componentType": 5126,
      "count": 45,
      "bufferView": 0,
      "byteOffset": 2808
    },
    {
      "type": "SCALAR",
      "componentType": 5126,
      "count": 47,
      "max": [
        1
      ],
      "min": [
        0
      ],
      "bufferView": 0,
      "byteOffset": 3528
    },
    {
      "type": "VEC3",
      "componentType": 5126,
      "count": 47,
      "bufferView": 0,
      "byteOffset": 3716
    },
    {
      "type": "SCALAR",
      "componentType": 5126,
      "count": 45,
      "max": [
        1
      ],
      "min": [
        0
      ],
      "bufferView": 0,
      "byteOffset": 4280
    },
    {
      "type": "VEC4",
      "componentType": 5126,
      "count": 45,
      "bufferView": 0,
      "byteOffset": 4460
    },
    {
      "type": "SCALAR",
      "componentType": 5126,
      "count": 27,
      "max": [
        10
      ],
      "min": [
        0
      ],
      "bufferView": 0,
      "byteOffset": 5180
    },
    {
      "type": "VEC4",
      "componentType": 5126,
      "count": 27,
      "bufferView": 0,
      "byteOffset": 5288
    },
    {
      "type": "SCALAR",
      "componentType": 5126,
      "count": 16,
      "max": [
        10
      ],
      "min": [
        0
      ],
      "bufferView": 0,
      "byteOffset": 5720
    },
    {
      "type": "VEC4",
      "componentType": 5126,
      "count": 16,
      "bufferView": 0,
      "byteOffset": 5784
    },
    {
      "type": "SCALAR",
      "componentType": 5126,
      "count": 2,
      "max": [
        10
      ],
      "min": [
        0
      ],
      "bufferView": 0,
      "byteOffset": 6040
    },
    {
      "type": "VEC3",
      "componentType": 5126,
      "count": 2,
      "bufferView": 0,
      "byteOffset": 6048
    },
    {
      "type": "VEC3",
      "componentType": 5126,
      "count": 2,
      "bufferView": 0,
      "byteOffset": 6072
    },
    {
      "type": "VEC4",
      "componentType": 5126,
      "count": 16,
      "bufferView": 0,
      "byteOffset": 6096
    },
    {
      "type": "VEC3",
      "componentType": 5126,
      "count": 2,
      "bufferView": 0,
      "byteOffset": 6352
    },
    {
      "type": "SCALAR",
      "componentType": 5126,
      "count": 23,
      "max": [
        10
      ],
      "min": [
        0
      ],
      "bufferView": 0,
      "byteOffset": 6376
    },
    {
      "type": "VEC4",
      "componentType": 5126,
      "count": 23,
      "bufferView": 0,
      "byteOffset": 6468
    },
    {
      "type": "VEC4",
      "componentType": 5126,
      "count": 2,
      "bufferView": 0,
      "byteOffset": 6836
    },
    {
      "type": "VEC3",
      "componentType": 5126,
      "count": 2,
      "bufferView": 0,
      "byteOffset": 6868
    },
    {
      "type": "SCALAR",
      "componentType": 5126,
      "count": 87,
      "max": [
        10
      ],
      "min": [
        0
      ],
      "bufferView": 0,
      "byteOffset": 6892
    },
    {
      "type": "VEC4",
      "componentType": 5126,
      "count": 87,
      "bufferView": 0,
      "byteOffset": 7240
    },
    {
      "type": "VEC4",
      "componentType": 5126,
      "count": 2,
      "bufferView": 0,
      "byteOffset": 8632
    },
    {
      "type": "VEC4",
      "componentType": 5126,
      "count": 2,
      "bufferView": 0,
      "byteOffset": 8664
    },
    {
      "type": "SCALAR",
      "componentType": 5126,
      "count": 1,
      "max": [
        0
      ],
      "min": [
        0
      ]
    },
    {
      "type": "SCALAR",
      "componentType": 5123,
      "count": 72,
      "bufferView": 1,
      "byteOffset": 0
    },
    {
      "type": "SCALAR",
      "componentType": 5123,
      "count": 36,
      "bufferView": 1,
      "byteOffset": 144
    },
    {
      "type": "VEC3",
      "componentType": 5126,
      "count": 48,
      "max": [
        0.125,
        0.5625,
        0
      ],
      "min": [
        -0.1875,
        0,
        -0.25
      ],
      "bufferView": 2,
      "byteOffset": 0
    },
    {
      "type": "VEC3",
      "componentType": 5126,
      "count": 48,
      "bufferView": 2,
      "byteOffset": 12
    },
    {
      "type": "VEC2",
      "componentType": 5126,
      "count": 48,
      "bufferView": 2,
      "byteOffset": 24
    },
    {
      "type": "VEC3",
      "componentType": 5126,
      "count": 24,
      "max": [
        1.125,
        1.1875,
        -0.1249374970793724
      ],
      "min": [
        0.1875,
        0.125,
        -0.125
      ],
      "bufferView": 3,
      "byteOffset": 0
    },
    {
      "type": "VEC2",
      "componentType": 5126,
      "count": 24,
      "bufferView": 3,
      "byteOffset": 12
    },
    {
      "type": "VEC3",
      "componentType": 5126,
      "count": 24,
      "bufferView": 3,
      "byteOffset": 20
    },
    {
      "type": "VEC3",
      "componentType": 5126,
      "count": 24,
      "max": [
        -0.1875,
        1.1875,
        -0.1249374970793724
      ],
      "min": [
        -1.125,
        0.125,
        -0.125
      ],
      "bufferView": 4,
      "byteOffset": 0
    },
    {
      "type": "VEC2",
      "componentType": 5126,
      "count": 24,
      "bufferView": 4,
      "byteOffset": 12
    },
    {
      "type": "VEC3",
      "componentType": 5126,
      "count": 24,
      "max": [
        0.1875,
        0.4375,
        0.0625
      ],
      "min": [
        -0.25,
        0.0625,
        -0.3125
      ],
      "bufferView": 5,
      "byteOffset": 0
    },
    {
      "type": "VEC2",
      "componentType": 5126,
      "count": 24,
      "bufferView": 5,
      "byteOffset": 12
    },
    {
      "type": "VEC3",
      "componentType": 5126,
      "count": 24,
      "max": [
        0.0625,
        0.3125,
        -0.187437504529953
      ],
      "min": [
        -0.1875,
        -0.125,
        -0.1875
      ],
      "bufferView": 6,
      "byteOffset": 0
    },
    {
      "type": "VEC2",
      "componentType": 5126,
      "count": 24,
      "bufferView": 6,
      "byteOffset": 12
    },
    {
      "type": "VEC3",
      "componentType": 5126,
      "count": 24,
      "max": [
        0.1875,
        0.28125,
        0.0000625000029685907
      ],
      "min": [
        -0.0625,
        -0.15625,
        0
      ],
      "bufferView": 7,
      "byteOffset": 0
    },
    {
      "type": "VEC2",
      "componentType": 5126,
      "count": 24,
      "bufferView": 7,
      "byteOffset": 12
    }
  ],
  "bufferViews": [
    {
      "buffer": 0,
      "byteOffset": 0,
      "byteLength": 8696
    },
    {
      "buffer": 0,
      "byteOffset": 8696,
      "byteLength": 216,
      "target": 34963
    },
    {
      "buffer": 0,
      "byteOffset": 8912,
      "byteLength": 1536,
      "byteStride": 32,
      "target": 34962
    },
    {
      "buffer": 0,
      "byteOffset": 10448,
      "byteLength": 768,
      "byteStride": 32,
      "target": 34962
    },
    {
      "buffer": 0,
      "byteOffset": 11216,
      "byteLength": 480,
      "byteStride": 20,
      "target": 34962
    },
    {
      "buffer": 0,
      "byteOffset": 11696,
      "byteLength": 480,
      "byteStride": 20,
      "target": 34962
    },
    {
      "buffer": 0,
      "byteOffset": 12176,
      "byteLength": 480,
      "byteStride": 20,
      "target": 34962
    },
    {
      "buffer": 0,
      "byteOffset": 12656,
      "byteLength": 480,
      "byteStride": 20,
      "target": 34962
    }
  ],
  "samplers": [
    {
      "magFilter": 9728,
      "minFilter": 9728,
      "wrapS": 33071,
      "wrapT": 33071
    }
  ],
  "textures": [
    {
      "source": 0,
      "sampler": 0
    }
  ],
  "images": [
    {
      "mimeType": "image/png",
      "uri": "baseColor.png"
    }
  ],
  "buffers": [
    {
      "uri": "bat.bin",
      "byteLength": 13136
    }
  ],
  "materials": [
    {
      "alphaMode": "MASK",
      "alphaCutoff": 0.05,
      "doubleSided": true,
      "pbrMetallicRoughness": {
        "metallicFactor": 0,
        "baseColorTexture": {
          "index": 0
        }
      }
    }
  ],
  "meshes": [
    {
      "primitives": [
        {
          "attributes": {
            "POSITION": 37,
            "NORMAL": 38,
            "TEXCOORD_0": 39
          },
          "mode": 4,
          "material": 0,
          "indices": 35
        }
      ]
    },
    {
      "primitives": [
        {
          "attributes": {
            "POSITION": 40,
            "TEXCOORD_0": 41,
            "NORMAL": 42
          },
          "mode": 4,
          "material": 0,
          "indices": 36
        }
      ]
    },
    {
      "primitives": [
        {
          "attributes": {
            "POSITION": 43,
            "TEXCOORD_0": 44,
            "NORMAL": 42
          },
          "mode": 4,
          "material": 0,
          "indices": 36
        }
      ]
    },
    {
      "primitives": [
        {
          "attributes": {
            "POSITION": 45,
            "TEXCOORD_0": 46,
            "NORMAL": 42
          },
          "mode": 4,
          "material": 0,
          "indices": 36
        }
      ]
    },
    {
      "primitives": [
        {
          "attributes": {
            "POSITION": 47,
            "TEXCOORD_0": 48,
            "NORMAL": 42
          },
          "mode": 4,
          "material": 0,
          "indices": 36
        }
      ]
    },
    {
      "primitives": [
        {
          "attributes": {
            "POSITION": 49,
            "TEXCOORD_0": 50,
            "NORMAL": 42
          },
          "mode": 4,
          "material": 0,
          "indices": 36
        }
      ]
    }
  ],
  "nodes": [
    {
      "name": "cube",
      "translation": [
        0.03125,
        -0.3125,
        0.125
      ],
      "mesh": 0
    },
    {
      "name": "cube",
      "translation": [
        -0.1875,
        -0.46875,
        0.125
      ],
      "mesh": 1
    },
    {
      "name": "wing_right",
      "children": [
        1
      ]
    },
    {
      "name": "wings_right_ext",
      "translation": [
        0.15625,
        0.15625,
        0
      ],
      "children": [
        2
      ]
    },
    {
      "name": "cube",
      "translation": [
        0.1875,
        -0.46875,
        0.125
      ],
      "mesh": 2
    },
    {
      "name": "wing_left",
      "children": [
        4
      ]
    },
    {
      "name": "wings_left_ext",
      "translation": [
        -0.15625,
        0.15625,
        0
      ],
      "children": [
        5
      ]
    },
    {
      "name": "wings",
      "children": [
        3,
        6
      ]
    },
    {
      "name": "cube",
      "translation": [
        0.03125,
        -0.08333333333333326,
        0.24479166666666666
      ],
      "mesh": 3
    },
    {
      "name": "cube",
      "translation": [
        0,
        0,
        0.1875
      ],
      "mesh": 4
    },
    {
      "name": "ear_left",
      "translation": [
        -0.125,
        0.29166666666666674,
        0.05729166666666666
      ],
      "children": [
        9
      ]
    },
    {
      "name": "cube",
      "mesh": 5
    },
    {
      "name": "ear_right",
      "translation": [
        0.125,
        0.32291666666666674,
        0.05729166666666666
      ],
      "children": [
        11
      ]
    },
    {
      "name": "head",
      "children": [
        8,
        10,
        12
      ]
    },
    {
      "name": "head_ext",
      "translation": [
        0,
        0.27083333333333326,
        -0.11979166666666666
      ],
      "children": [
        13
      ]
    },
    {
      "name": "body",
      "children": [
        0,
        7,
        14
      ]
    },
    {
      "name": "body_orbit",
      "children": [
        15
      ]
    },
    {
      "name": "root",
      "translation": [
        0,
        0.3125,
        0
      ],
      "children": [
        16
      ]
    },
    {
      "children": [
        17
      ]
    }
  ],
  "animations": [
    {
      "name": "idle",
      "samplers": [
        {
          "input": 8,
          "output": 9,
          "interpolation": "LINEAR"
        },
        {
          "input": 8,
          "output": 10,
          "interpolation": "LINEAR"
        },
        {
          "input": 0,
          "output": 1,
          "interpolation": "LINEAR"
        },
        {
          "input": 0,
          "output": 2,
          "interpolation": "LINEAR"
        },
        {
          "input": 0,
          "output": 3,
          "interpolation": "LINEAR"
        }
      ],
      "channels": [
        {
          "sampler": 0,
          "target": {
            "node": 17,
            "path": "translation"
          }
        },
        {
          "sampler": 1,
          "target": {
            "node": 16,
            "path": "rotation"
          }
        },
        {
          "sampler": 2,
          "target": {
            "node": 16,
            "path": "translation"
          }
        },
        {
          "sampler": 3,
          "target": {
            "node": 2,
            "path": "rotation"
          }
        },
        {
          "sampler": 4,
          "target": {
            "node": 5,
            "path": "rotation"
          }
        }
      ]
    },
    {
      "name": "fly",
      "samplers": [
        {
          "input": 11,
          "output": 12,
          "interpolation": "LINEAR"
        },
        {
          "input": 13,
          "output": 14,
          "interpolation": "LINEAR"
        },
        {
          "input": 4,
          "output": 5,
          "interpolation": "LINEAR"
        },
        {
          "input": 4,
          "output": 6,
          "interpolation": "LINEAR"
        },
        {
          "input": 15,
          "output": 16,
          "interpolation": "LINEAR"
        },
        {
          "input": 34,
          "output": 7,
          "interpolation": "LINEAR"
        }
      ],
      "channels": [
        {
          "sampler": 0,
          "target": {
            "node": 16,
            "path": "rotation"
          }
        },
        {
          "sampler": 1,
          "target": {
            "node": 16,
            "path": "translation"
          }
        },
        {
          "sampler": 2,
          "target": {
            "node": 2,
            "path": "rotation"
          }
        },
        {
          "sampler": 3,
          "target": {
            "node": 5,
            "path": "rotation"
          }
        },
        {
          "sampler": 4,
          "target": {
            "node": 13,
            "path": "rotation"
          }
        },
        {
          "sampler": 5,
          "target": {
            "node": 13,
            "path": "translation"
          }
        }
      ]
    },
    {
      "name": "hanging",
      "samplers": [
        {
          "input": 17,
          "output": 18,
          "interpolation": "LINEAR"
        },
        {
          "input": 19,
          "output": 20,
          "interpolation": "LINEAR"
        },
        {
          "input": 21,
          "output": 22,
          "interpolation": "LINEAR"
        },
        {
          "input": 21,
          "output": 23,
          "interpolation": "LINEAR"
        },
        {
          "input": 19,
          "output": 24,
          "interpolation": "LINEAR"
        },
        {
          "input": 21,
          "output": 25,
          "interpolation": "LINEAR"
        },
        {
          "input": 21,
          "output": 23,
          "interpolation": "LINEAR"
        },
        {
          "input": 26,
          "output": 27,
          "interpolation": "LINEAR"
        },
        {
          "input": 21,
          "output": 28,
          "interpolation": "LINEAR"
        },
        {
          "input": 21,
          "output": 29,
          "interpolation": "LINEAR"
        },
        {
          "input": 30,
          "output": 31,
          "interpolation": "LINEAR"
        },
        {
          "input": 21,
          "output": 32,
          "interpolation": "LINEAR"
        },
        {
          "input": 21,
          "output": 33,
          "interpolation": "LINEAR"
        }
      ],
      "channels": [
        {
          "sampler": 0,
          "target": {
            "node": 15,
            "path": "rotation"
          }
        },
        {
          "sampler": 1,
          "target": {
            "node": 2,
            "path": "rotation"
          }
        },
        {
          "sampler": 2,
          "target": {
            "node": 2,
            "path": "translation"
          }
        },
        {
          "sampler": 3,
          "target": {
            "node": 2,
            "path": "scale"
          }
        },
        {
          "sampler": 4,
          "target": {
            "node": 5,
            "path": "rotation"
          }
        },
        {
          "sampler": 5,
          "target": {
            "node": 5,
            "path": "translation"
          }
        },
        {
          "sampler": 6,
          "target": {
            "node": 5,
            "path": "scale"
          }
        },
        {
          "sampler": 7,
          "target": {
            "node": 13,
            "path": "rotation"
          }
        },
        {
          "sampler": 8,
          "target": {
            "node": 16,
            "path": "rotation"
          }
        },
        {
          "sampler": 9,
          "target": {
            "node": 16,
            "path": "translation"
          }
        },
        {
          "sampler": 10,
          "target": {
            "node": 14,
            "path": "rotation"
          }
        },
        {
          "sampler": 11,
          "target": {
            "node": 10,
            "path": "rotation"
          }
        },
        {
          "sampler": 12,
          "target": {
            "node": 12,
            "path": "rotation"
          }
        }
      ]
    }
  ],
  "scenes": [
    {
      "name": "blockbench_export",
      "nodes": [
        18
      ]
    }
  ],
  "scene": 0
}