{"asset":{"version":"2.0","generator":"Blockbench 4.11.0 glTF exporter"},"scenes":[{"nodes":[7],"name":"blockbench_export"}],"scene":0,"nodes":[{"name":"bone"},{"rotation":[0.7071067811865475,0,0,0.7071067811865476],"translation":[0,0.25,0],"name":"grass_plane_1","mesh":0},{"translation":[0,-0.0625,0],"name":"Grass","children":[1]},{"rotation":[0.3265055756219766,-0.6272113751262499,0.6272113751262501,0.32650557562197713],"translation":[0,0.1875,0],"name":"grass_plane_2","mesh":1},{"name":"Grass_2","children":[3]},{"rotation":[0.2705980500730983,-0.6532814824381881,0.6532814824381884,0.2705980500730988],"translation":[0,0.1875,0],"name":"grass_plane_3","mesh":2},{"rotation":[0,0.6427876096865393,0,0.766044443118978],"name":"Grass_3","children":[5]},{"children":[0,2,4,6]}],"bufferViews":[{"buffer":0,"byteOffset":0,"byteLength":48,"target":34962,"byteStride":12},{"buffer":0,"byteOffset":48,"byteLength":48,"target":34962,"byteStride":12},{"buffer":0,"byteOffset":96,"byteLength":32,"target":34962,"byteStride":8},{"buffer":0,"byteOffset":128,"byteLength":12,"target":34963},{"buffer":0,"byteOffset":140,"byteLength":48,"target":34962,"byteStride":12},{"buffer":0,"byteOffset":188,"byteLength":48,"target":34962,"byteStride":12},{"buffer":0,"byteOffset":236,"byteLength":32,"target":34962,"byteStride":8},{"buffer":0,"byteOffset":268,"byteLength":12,"target":34963},{"buffer":0,"byteOffset":280,"byteLength":48,"target":34962,"byteStride":12},{"buffer":0,"byteOffset":328,"byteLength":48,"target":34962,"byteStride":12},{"buffer":0,"byteOffset":376,"byteLength":32,"target":34962,"byteStride":8},{"buffer":0,"byteOffset":408,"byteLength":12,"target":34963},{"buffer":0,"byteOffset":420,"byteLength":256},{"buffer":0,"byteOffset":676,"byteLength":1024},{"buffer":0,"byteOffset":1700,"byteLength":12},{"buffer":0,"byteOffset":1712,"byteLength":36},{"buffer":0,"byteOffset":1748,"byteLength":12},{"buffer":0,"byteOffset":1760,"byteLength":36},{"buffer":0,"byteOffset":1796,"byteLength":256},{"buffer":0,"byteOffset":2052,"byteLength":1024},{"buffer":0,"byteOffset":3076,"byteLength":12},{"buffer":0,"byteOffset":3088,"byteLength":36},{"buffer":0,"byteOffset":3124,"byteLength":12},{"buffer":0,"byteOffset":3136,"byteLength":36},{"buffer":0,"byteOffset":3172,"byteLength":256},{"buffer":0,"byteOffset":3428,"byteLength":1024},{"buffer":0,"byteOffset":4452,"byteLength":12},{"buffer":0,"byteOffset":4464,"byteLength":36},{"buffer":0,"byteOffset":4500,"byteLength":12},{"buffer":0,"byteOffset":4512,"byteLength":36}],"buffers":[{"byteLength":4548,"uri":"data:application/octet-stream;base64,"}],"accessors":[{"bufferView":0,"componentType":5126,"count":4,"max":[0.25,0,0.25],"min":[-0.25,0,-0.25],"type":"VEC3"},{"bufferView":1,"componentType":5126,"count":4,"max":[0,1,0],"min":[0,1,0],"type":"VEC3"},{"bufferView":2,"componentType":5126,"count":4,"max":[1,1],"min":[0,0],"type":"VEC2"},{"bufferView":3,"componentType":5123,"count":6,"max":[3],"min":[0],"type":"SCALAR"},{"bufferView":4,"componentType":5126,"count":4,"max":[0.25,0,0.25],"min":[-0.25,0,-0.25],"type":"VEC3"},{"bufferView":5,"componentType":5126,"count":4,"max":[0,1,0],"min":[0,1,0],"type":"VEC3"},{"bufferView":6,"componentType":5126,"count":4,"max":[1,1],"min":[0,0],"type":"VEC2"},{"bufferView":7,"componentType":5123,"count":6,"max":[3],"min":[0],"type":"SCALAR"},{"bufferView":8,"componentType":5126,"count":4,"max":[0.25,0,0.25],"min":[-0.25,0,-0.25],"type":"VEC3"},{"bufferView":9,"componentType":5126,"count":4,"max":[0,1,0],"min":[0,1,0],"type":"VEC3"},{"bufferView":10,"componentType":5126,"count":4,"max":[1,1],"min":[0,0],"type":"VEC2"},{"bufferView":11,"componentType":5123,"count":6,"max":[3],"min":[0],"type":"SCALAR"},{"bufferView":12,"componentType":5126,"count":64,"max":[4],"min":[0],"type":"SCALAR"},{"bufferView":13,"componentType":5126,"count":64,"max":[0.017452405765652657,0,0,0.9999994039535522],"min":[-0.017452405765652657,0,0,0.9998477101325989],"type":"VEC4"},{"bufferView":14,"componentType":5126,"count":3,"max":[4],"min":[0],"type":"SCALAR"},{"bufferView":15,"componentType":5126,"count":3,"max":[0,-0.0625,0],"min":[0,-0.0625,0],"type":"VEC3"},{"bufferView":16,"componentType":5126,"count":3,"max":[4],"min":[0],"type":"SCALAR"},{"bufferView":17,"componentType":5126,"count":3,"max":[1,1,1],"min":[1,1,1],"type":"VEC3"},{"bufferView":18,"componentType":5126,"count":64,"max":[4],"min":[0],"type":"SCALAR"},{"bufferView":19,"componentType":5126,"count":64,"max":[0.017452405765652657,0,0,0.9999994039535522],"min":[-0.017452405765652657,0,0,0.9998477101325989],"type":"VEC4"},{"bufferView":20,"componentType":5126,"count":3,"max":[4],"min":[0],"type":"SCALAR"},{"bufferView":21,"componentType":5126,"count":3,"max":[0,0,0],"min":[0,0,0],"type":"VEC3"},{"bufferView":22,"componentType":5126,"count":3,"max":[4],"min":[0],"type":"SCALAR"},{"bufferView":23,"componentType":5126,"count":3,"max":[1,1,1],"min":[1,1,1],"type":"VEC3"},{"bufferView":24,"componentType":5126,"count":64,"max":[4],"min":[0],"type":"SCALAR"},{"bufferView":25,"componentType":5126,"count":64,"max":[0.013369319029152393,0.6427872180938721,0.01121819019317627,0.7660439610481262],"min":[-0.013369319029152393,0.6426897048950195,-0.01121819019317627,0.765927791595459],"type":"VEC4"},{"bufferView":26,"componentType":5126,"count":3,"max":[4],"min":[0],"type":"SCALAR"},{"bufferView":27,"componentType":5126,"count":3,"max":[0,0,0],"min":[0,0,0],"type":"VEC3"},{"bufferView":28,"componentType":5126,"count":3,"max":[4],"min":[0],"type":"SCALAR"},{"bufferView":29,"componentType":5126,"count":3,"max":[1,1,1],"min":[1,1,1],"type":"VEC3"}],"materials":[{"pbrMetallicRoughness":{"metallicFactor":0,"roughnessFactor":1,"baseColorTexture":{"index":0}},"alphaMode":"MASK","alphaCutoff":0.05,"doubleSided":true},{"pbrMetallicRoughness":{"metallicFactor":0,"roughnessFactor":1,"baseColorTexture":{"index":1}},"alphaMode":"MASK","alphaCutoff":0.05,"doubleSided":true}],"textures":[{"sampler":0,"source":0,"name":"grass_texture_1.png"},{"sampler":1,"source":1,"name":"grass_texture_1"}],"samplers":[{"magFilter":9728,"minFilter":9728,"wrapS":33071,"wrapT":33071},{"magFilter":9728,"minFilter":9728,"wrapS":33071,"wrapT":33071}],"images":[{"mimeType":"image/png","uri":"data:image/png;base64,"},{"mimeType":"image/png","uri":"data:image/png;base64,"}],"meshes":[{"primitives":[{"mode":4,"attributes":{"POSITION":0,"NORMAL":1,"TEXCOORD_0":2},"indices":3,"material":0}]},{"primitives":[{"mode":4,"attributes":{"POSITION":4,"NORMAL":5,"TEXCOORD_0":6},"indices":7,"material":1}]},{"primitives":[{"mode":4,"attributes":{"POSITION":8,"NORMAL":9,"TEXCOORD_0":10},"indices":11,"material":1}]}],"animations":[{"name":"idle","samplers":[{"input":12,"output":13,"interpolation":"LINEAR"},{"input":14,"output":15,"interpolation":"LINEAR"},{"input":16,"output":17,"interpolation":"LINEAR"},{"input":18,"output":19,"interpolation":"LINEAR"},{"input":20,"output":21,"interpolation":"LINEAR"},{"input":22,"output":23,"interpolation":"LINEAR"},{"input":24,"output":25,"interpolation":"LINEAR"},{"input":26,"output":27,"interpolation":"LINEAR"},{"input":28,"output":29,"interpolation":"LINEAR"}],"channels":[{"sampler":0,"target":{"node":2,"path":"rotation"}},{"sampler":1,"target":{"node":2,"path":"translation"}},{"sampler":2,"target":{"node":2,"path":"scale"}},{"sampler":3,"target":{"node":4,"path":"rotation"}},{"sampler":4,"target":{"node":4,"path":"translation"}},{"sampler":5,"target":{"node":4,"path":"scale"}},{"sampler":6,"target":{"node":6,"path":"rotation"}},{"sampler":7,"target":{"node":6,"path":"translation"}},{"sampler":8,"target":{"node":6,"path":"scale"}}]}]}