{
  "asset": {
    "generator": "glTF-Transform v4.1.1",
    "version": "2.0"
  },
  "accessors": [
    {
      "type": "SCALAR",
      "componentType": 5123,
      "count": 6,
      "bufferView": 0,
      "byteOffset": 0
    },
    {
      "type": "VEC3",
      "componentType": 5126,
      "count": 4,
      "max": [
        0.25,
        0,
        0.25
      ],
      "min": [
        -0.25,
        0,
        -0.25
      ],
      "bufferView": 1,
      "byteOffset": 0
    },
    {
      "type": "VEC3",
      "componentType": 5126,
      "count": 4,
      "bufferView": 1,
      "byteOffset": 12
    },
    {
      "type": "VEC2",
      "componentType": 5126,
      "count": 4,
      "bufferView": 1,
      "byteOffset": 24
    },
    {
      "type": "SCALAR",
      "componentType": 5126,
      "count": 24,
      "max": [
        4
      ],
      "min": [
        0
      ],
      "bufferView": 2,
      "byteOffset": 0
    },
    {
      "type": "VEC4",
      "componentType": 5126,
      "count": 24,
      "bufferView": 2,
      "byteOffset": 96
    },
    {
      "type": "SCALAR",
      "componentType": 5126,
      "count": 2,
      "max": [
        4
      ],
      "min": [
        0
      ],
      "bufferView": 2,
      "byteOffset": 480
    },
    {
      "type": "VEC3",
      "componentType": 5126,
      "count": 2,
      "bufferView": 2,
      "byteOffset": 488
    },
    {
      "type": "VEC3",
      "componentType": 5126,
      "count": 2,
      "bufferView": 2,
      "byteOffset": 512
    },
    {
      "type": "VEC4",
      "componentType": 5126,
      "count": 24,
      "bufferView": 2,
      "byteOffset": 536
    },
    {
      "type": "SCALAR",
      "componentType": 5126,
      "count": 21,
      "max": [
        4
      ],
      "min": [
        0
      ],
      "bufferView": 2,
      "byteOffset": 920
    },
    {
      "type": "VEC4",
      "componentType": 5126,
      "count": 21,
      "bufferView": 2,
      "byteOffset": 1004
    },
    {
      "type": "VEC3",
      "componentType": 5126,
      "count": 2
    }
  ],
  "bufferViews": [
    {
      "buffer": 0,
      "byteOffset": 0,
      "byteLength": 12,
      "target": 34963
    },
    {
      "buffer": 0,
      "byteOffset": 12,
      "byteLength": 128,
      "byteStride": 32,
      "target": 34962
    },
    {
      "buffer": 0,
      "byteOffset": 140,
      "byteLength": 1340
    }
  ],
  "samplers": [
    {
      "magFilter": 9728,
      "minFilter": 9728,
      "wrapS": 33071,
      "wrapT": 33071
    }
  ],
  "textures": [
    {
      "source": 0,
      "sampler": 0
    },
    {
      "source": 1,
      "sampler": 0
    }
  ],
  "images": [
    {
      "mimeType": "image/png",
      "uri": "baseColor_1.png"
    },
    {
      "mimeType": "image/png",
      "uri": "baseColor_2.png"
    }
  ],
  "buffers": [
    {
      "uri": "waving-grass-named-nodes.bin",
      "byteLength": 1480
    }
  ],
  "materials": [
    {
      "alphaMode": "MASK",
      "alphaCutoff": 0.05,
      "doubleSided": true,
      "pbrMetallicRoughness": {
        "metallicFactor": 0,
        "baseColorTexture": {
          "index": 0
        }
      }
    },
    {
      "alphaMode": "MASK",
      "alphaCutoff": 0.05,
      "doubleSided": true,
      "pbrMetallicRoughness": {
        "metallicFactor": 0,
        "baseColorTexture": {
          "index": 1
        }
      }
    }
  ],
  "meshes": [
    {
      "primitives": [
        {
          "attributes": {
            "POSITION": 1,
            "NORMAL": 2,
            "TEXCOORD_0": 3
          },
          "mode": 4,
          "material": 0,
          "indices": 0
        }
      ]
    },
    {
      "primitives": [
        {
          "attributes": {
            "POSITION": 1,
            "NORMAL": 2,
            "TEXCOORD_0": 3
          },
          "mode": 4,
          "material": 1,
          "indices": 0
        }
      ]
    }
  ],
  "nodes": [
    {
      "name": "grass_plane_1",
      "translation": [
        0,
        0.25,
        0
      ],
      "rotation": [
        0.7071067811865475,
        0,
        0,
        0.7071067811865476
      ],
      "mesh": 0
    },
    {
      "name": "Grass",
      "translation": [
        0,
        -0.0625,
        0
      ],
      "children": [
        0
      ]
    },
    {
      "name": "grass_plane_2",
      "translation": [
        0,
        0.1875,
        0
      ],
      "rotation": [
        0.3265055756219766,
        -0.6272113751262499,
        0.6272113751262501,
        0.32650557562197713
      ],
      "mesh": 1
    },
    {
      "name": "Grass_2",
      "children": [
        2
      ]
    },
    {
      "name": "grass_plane_3",
      "translation": [
        0,
        0.1875,
        0
      ],
      "rotation": [
        0.2705980500730983,
        -0.6532814824381881,
        0.6532814824381884,
        0.2705980500730988
      ],
      "mesh": 1
    },
    {
      "name": "Grass_3",
      "rotation": [
        0,
        0.6427876096865393,
        0,
        0.766044443118978
      ],
      "children": [
        4
      ]
    },
    {
      "children": [
        1,
        3,
        5
      ]
    }
  ],
  "animations": [
    {
      "name": "idle",
      "samplers": [
        {
          "input": 4,
          "output": 5,
          "interpolation": "LINEAR"
        },
        {
          "input": 6,
          "output": 7,
          "interpolation": "LINEAR"
        },
        {
          "input": 6,
          "output": 8,
          "interpolation": "LINEAR"
        },
        {
          "input": 4,
          "output": 9,
          "interpolation": "LINEAR"
        },
        {
          "input": 6,
          "output": 12,
          "interpolation": "LINEAR"
        },
        {
          "input": 6,
          "output": 8,
          "interpolation": "LINEAR"
        },
        {
          "input": 10,
          "output": 11,
          "interpolation": "LINEAR"
        },
        {
          "input": 6,
          "output": 12,
          "interpolation": "LINEAR"
        },
        {
          "input": 6,
          "output": 8,
          "interpolation": "LINEAR"
        }
      ],
      "channels": [
        {
          "sampler": 0,
          "target": {
            "node": 1,
            "path": "rotation"
          }
        },
        {
          "sampler": 1,
          "target": {
            "node": 1,
            "path": "translation"
          }
        },
        {
          "sampler": 2,
          "target": {
            "node": 1,
            "path": "scale"
          }
        },
        {
          "sampler": 3,
          "target": {
            "node": 3,
            "path": "rotation"
          }
        },
        {
          "sampler": 4,
          "target": {
            "node": 3,
            "path": "translation"
          }
        },
        {
          "sampler": 5,
          "target": {
            "node": 3,
            "path": "scale"
          }
        },
        {
          "sampler": 6,
          "target": {
            "node": 5,
            "path": "rotation"
          }
        },
        {
          "sampler": 7,
          "target": {
            "node": 5,
            "path": "translation"
          }
        },
        {
          "sampler": 8,
          "target": {
            "node": 5,
            "path": "scale"
          }
        }
      ]
    }
  ],
  "scenes": [
    {
      "name": "blockbench_export",
      "nodes": [
        6
      ]
    }
  ],
  "scene": 0
}