{
  "asset": {
    "generator": "glTF-Transform v4.1.1",
    "version": "2.0"
  },
  "accessors": [
    {
      "type": "SCALAR",
      "componentType": 5126,
      "count": 20,
      "max": [
        6
      ],
      "min": [
        0
      ],
      "bufferView": 0,
      "byteOffset": 0
    },
    {
      "type": "VEC4",
      "componentType": 5126,
      "count": 20,
      "bufferView": 0,
      "byteOffset": 80
    },
    {
      "type": "SCALAR",
      "componentType": 5126,
      "count": 28,
      "max": [
        6
      ],
      "min": [
        0
      ],
      "bufferView": 0,
      "byteOffset": 400
    },
    {
      "type": "VEC3",
      "componentType": 5126,
      "count": 28,
      "bufferView": 0,
      "byteOffset": 512
    },
    {
      "type": "SCALAR",
      "componentType": 5126,
      "count": 14,
      "max": [
        6
      ],
      "min": [
        0
      ],
      "bufferView": 0,
      "byteOffset": 848
    },
    {
      "type": "VEC3",
      "componentType": 5126,
      "count": 14,
      "bufferView": 0,
      "byteOffset": 904
    },
    {
      "type": "SCALAR",
      "componentType": 5126,
      "count": 35,
      "max": [
        6
      ],
      "min": [
        0
      ],
      "bufferView": 0,
      "byteOffset": 1072
    },
    {
      "type": "VEC4",
      "componentType": 5126,
      "count": 35,
      "bufferView": 0,
      "byteOffset": 1212
    },
    {
      "type": "SCALAR",
      "componentType": 5126,
      "count": 21,
      "max": [
        6
      ],
      "min": [
        0
      ],
      "bufferView": 0,
      "byteOffset": 1772
    },
    {
      "type": "VEC4",
      "componentType": 5126,
      "count": 21,
      "bufferView": 0,
      "byteOffset": 1856
    },
    {
      "type": "SCALAR",
      "componentType": 5126,
      "count": 33,
      "max": [
        6
      ],
      "min": [
        0
      ],
      "bufferView": 0,
      "byteOffset": 2192
    },
    {
      "type": "VEC4",
      "componentType": 5126,
      "count": 33,
      "bufferView": 0,
      "byteOffset": 2324
    },
    {
      "type": "SCALAR",
      "componentType": 5126,
      "count": 14,
      "max": [
        2
      ],
      "min": [
        0
      ],
      "bufferView": 0,
      "byteOffset": 2852
    },
    {
      "type": "SCALAR",
      "componentType": 5126,
      "count": 32,
      "max": [
        2
      ],
      "min": [
        0
      ],
      "bufferView": 0,
      "byteOffset": 2908
    },
    {
      "type": "VEC4",
      "componentType": 5126,
      "count": 32,
      "bufferView": 0,
      "byteOffset": 3036
    },
    {
      "type": "SCALAR",
      "componentType": 5126,
      "count": 33,
      "max": [
        2
      ],
      "min": [
        0
      ],
      "bufferView": 0,
      "byteOffset": 3548
    },
    {
      "type": "VEC4",
      "componentType": 5126,
      "count": 33,
      "bufferView": 0,
      "byteOffset": 3680
    },
    {
      "type": "SCALAR",
      "componentType": 5126,
      "count": 34,
      "max": [
        2
      ],
      "min": [
        0
      ],
      "bufferView": 0,
      "byteOffset": 4208
    },
    {
      "type": "VEC4",
      "componentType": 5126,
      "count": 34,
      "bufferView": 0,
      "byteOffset": 4344
    },
    {
      "type": "SCALAR",
      "componentType": 5126,
      "count": 32,
      "max": [
        6
      ],
      "min": [
        0
      ],
      "bufferView": 0,
      "byteOffset": 4888
    },
    {
      "type": "VEC4",
      "componentType": 5126,
      "count": 32,
      "bufferView": 0,
      "byteOffset": 5016
    },
    {
      "type": "SCALAR",
      "componentType": 5126,
      "count": 19,
      "max": [
        6
      ],
      "min": [
        0
      ],
      "bufferView": 0,
      "byteOffset": 5528
    },
    {
      "type": "VEC4",
      "componentType": 5126,
      "count": 19,
      "bufferView": 0,
      "byteOffset": 5604
    },
    {
      "type": "SCALAR",
      "componentType": 5126,
      "count": 33,
      "max": [
        6
      ],
      "min": [
        0
      ],
      "bufferView": 0,
      "byteOffset": 5908
    },
    {
      "type": "VEC4",
      "componentType": 5126,
      "count": 33,
      "bufferView": 0,
      "byteOffset": 6040
    },
    {
      "type": "SCALAR",
      "componentType": 5126,
      "count": 19,
      "max": [
        2
      ],
      "min": [
        0
      ],
      "bufferView": 0,
      "byteOffset": 6568
    },
    {
      "type": "VEC4",
      "componentType": 5126,
      "count": 19,
      "bufferView": 0,
      "byteOffset": 6644
    },
    {
      "type": "SCALAR",
      "componentType": 5126,
      "count": 33,
      "max": [
        2
      ],
      "min": [
        0
      ],
      "bufferView": 0,
      "byteOffset": 6948
    },
    {
      "type": "VEC3",
      "componentType": 5126,
      "count": 33,
      "bufferView": 0,
      "byteOffset": 7080
    },
    {
      "type": "SCALAR",
      "componentType": 5126,
      "count": 21,
      "max": [
        2
      ],
      "min": [
        0
      ],
      "bufferView": 0,
      "byteOffset": 7476
    },
    {
      "type": "VEC4",
      "componentType": 5126,
      "count": 21,
      "bufferView": 0,
      "byteOffset": 7560
    },
    {
      "type": "SCALAR",
      "componentType": 5126,
      "count": 21,
      "max": [
        2
      ],
      "min": [
        0
      ],
      "bufferView": 0,
      "byteOffset": 7896
    },
    {
      "type": "VEC4",
      "componentType": 5126,
      "count": 21,
      "bufferView": 0,
      "byteOffset": 7980
    },
    {
      "type": "SCALAR",
      "componentType": 5126,
      "count": 32,
      "max": [
        2
      ],
      "min": [
        0
      ],
      "bufferView": 0,
      "byteOffset": 8316
    },
    {
      "type": "VEC4",
      "componentType": 5126,
      "count": 32,
      "bufferView": 0,
      "byteOffset": 8444
    },
    {
      "type": "SCALAR",
      "componentType": 5123,
      "count": 144,
      "bufferView": 1,
      "byteOffset": 0
    },
    {
      "type": "SCALAR",
      "componentType": 5123,
      "count": 36,
      "bufferView": 1,
      "byteOffset": 288
    },
    {
      "type": "VEC3",
      "componentType": 5126,
      "count": 96,
      "max": [
        0.5,
        1.875,
        0.515625
      ],
      "min": [
        -0.5,
        0,
        -0.421875
      ],
      "bufferView": 2,
      "byteOffset": 0
    },
    {
      "type": "VEC3",
      "componentType": 5126,
      "count": 96,
      "bufferView": 2,
      "byteOffset": 12
    },
    {
      "type": "VEC2",
      "componentType": 5126,
      "count": 96,
      "bufferView": 2,
      "byteOffset": 24
    },
    {
      "type": "VEC3",
      "componentType": 5126,
      "count": 24,
      "max": [
        0.09375,
        0,
        0.09375
      ],
      "min": [
        -0.09375,
        -1.0625,
        -0.09375
      ],
      "bufferView": 3,
      "byteOffset": 0
    },
    {
      "type": "VEC2",
      "componentType": 5126,
      "count": 24,
      "bufferView": 3,
      "byteOffset": 12
    },
    {
      "type": "VEC3",
      "componentType": 5126,
      "count": 24,
      "bufferView": 3,
      "byteOffset": 20
    },
    {
      "type": "VEC3",
      "componentType": 5126,
      "count": 24,
      "max": [
        0.09375,
        0,
        0.09375
      ],
      "min": [
        -0.09375,
        -1.1875,
        -0.09375
      ],
      "bufferView": 4,
      "byteOffset": 0
    },
    {
      "type": "VEC2",
      "componentType": 5126,
      "count": 24,
      "bufferView": 4,
      "byteOffset": 12
    },
    {
      "type": "VEC2",
      "componentType": 5126,
      "count": 24,
      "bufferView": 5,
      "byteOffset": 0
    }
  ],
  "bufferViews": [
    {
      "buffer": 0,
      "byteOffset": 0,
      "byteLength": 8956
    },
    {
      "buffer": 0,
      "byteOffset": 8956,
      "byteLength": 360,
      "target": 34963
    },
    {
      "buffer": 0,
      "byteOffset": 9316,
      "byteLength": 3072,
      "byteStride": 32,
      "target": 34962
    },
    {
      "buffer": 0,
      "byteOffset": 12388,
      "byteLength": 768,
      "byteStride": 32,
      "target": 34962
    },
    {
      "buffer": 0,
      "byteOffset": 13156,
      "byteLength": 480,
      "byteStride": 20,
      "target": 34962
    },
    {
      "buffer": 0,
      "byteOffset": 13636,
      "byteLength": 192,
      "byteStride": 8,
      "target": 34962
    }
  ],
  "samplers": [
    {
      "magFilter": 9728,
      "minFilter": 9728,
      "wrapS": 33071,
      "wrapT": 33071
    }
  ],
  "textures": [
    {
      "source": 0,
      "sampler": 0
    }
  ],
  "images": [
    {
      "mimeType": "image/png",
      "uri": "baseColor.png"
    }
  ],
  "buffers": [
    {
      "uri": "squid.bin",
      "byteLength": 13828
    }
  ],
  "materials": [
    {
      "alphaMode": "MASK",
      "alphaCutoff": 0.05,
      "doubleSided": true,
      "pbrMetallicRoughness": {
        "metallicFactor": 0,
        "baseColorTexture": {
          "index": 0
        }
      }
    }
  ],
  "meshes": [
    {
      "primitives": [
        {
          "attributes": {
            "POSITION": 37,
            "NORMAL": 38,
            "TEXCOORD_0": 39
          },
          "mode": 4,
          "material": 0,
          "indices": 35
        }
      ]
    },
    {
      "primitives": [
        {
          "attributes": {
            "POSITION": 40,
            "TEXCOORD_0": 41,
            "NORMAL": 42
          },
          "mode": 4,
          "material": 0,
          "indices": 36
        }
      ]
    },
    {
      "primitives": [
        {
          "attributes": {
            "POSITION": 40,
            "NORMAL": 42,
            "TEXCOORD_0": 41
          },
          "mode": 4,
          "material": 0,
          "indices": 36
        }
      ]
    },
    {
      "primitives": [
        {
          "attributes": {
            "POSITION": 43,
            "TEXCOORD_0": 44,
            "NORMAL": 42
          },
          "mode": 4,
          "material": 0,
          "indices": 36
        }
      ]
    },
    {
      "primitives": [
        {
          "attributes": {
            "TEXCOORD_0": 45,
            "POSITION": 43,
            "NORMAL": 42
          },
          "mode": 4,
          "material": 0,
          "indices": 36
        }
      ]
    }
  ],
  "nodes": [
    {
      "name": "cube",
      "translation": [
        0,
        0,
        -0.046875
      ],
      "mesh": 0
    },
    {
      "name": "body",
      "children": [
        0
      ]
    },
    {
      "name": "cube",
      "mesh": 1
    },
    {
      "name": "tentacle_front_right",
      "children": [
        2
      ]
    },
    {
      "name": "tentacle_front_right_ext",
      "translation": [
        0.125,
        -0.010416666666666519,
        -0.21875
      ],
      "children": [
        3
      ]
    },
    {
      "name": "cube",
      "mesh": 2
    },
    {
      "name": "tentacle_front_left",
      "children": [
        5
      ]
    },
    {
      "name": "tentacle_front_left_ext",
      "translation": [
        -0.125,
        -0.010416666666666519,
        -0.21875
      ],
      "children": [
        6
      ]
    },
    {
      "name": "cube",
      "rotation": [
        0,
        -0.7071067811865475,
        0,
        0.7071067811865476
      ],
      "mesh": 3
    },
    {
      "name": "tentacle_side_right",
      "children": [
        8
      ]
    },
    {
      "name": "tentacle_side_right_ext",
      "translation": [
        0.25,
        -0.010416666666666519,
        0
      ],
      "children": [
        9
      ]
    },
    {
      "name": "cube",
      "rotation": [
        0,
        0.7071067811865475,
        0,
        0.7071067811865476
      ],
      "mesh": 4
    },
    {
      "name": "tentacle_side_left",
      "children": [
        11
      ]
    },
    {
      "name": "tentacle_side_left_ext",
      "translation": [
        -0.25,
        -0.010416666666666519,
        0
      ],
      "children": [
        12
      ]
    },
    {
      "name": "cube",
      "rotation": [
        0,
        -1,
        0,
        6.123233995736766e-17
      ],
      "mesh": 2
    },
    {
      "name": "tentacle_back_right",
      "children": [
        14
      ]
    },
    {
      "name": "tentacle_back_right_ext",
      "translation": [
        0.12499999999999997,
        -0.010416666666666519,
        0.21875
      ],
      "children": [
        15
      ]
    },
    {
      "name": "cube",
      "rotation": [
        0,
        1,
        0,
        6.123233995736766e-17
      ],
      "mesh": 2
    },
    {
      "name": "tentacle_back_left",
      "children": [
        17
      ]
    },
    {
      "name": "tentacle_back_left_ext",
      "translation": [
        -0.12499999999999997,
        -0.010416666666666519,
        0.21875
      ],
      "children": [
        18
      ]
    },
    {
      "name": "tentacles",
      "translation": [
        0,
        0.010416666666666519,
        0
      ],
      "children": [
        4,
        7,
        10,
        13,
        16,
        19
      ]
    },
    {
      "name": "body_main",
      "children": [
        1,
        20
      ]
    },
    {
      "name": "body_orbit",
      "translation": [
        0,
        1.1875,
        0
      ],
      "children": [
        21
      ]
    },
    {
      "name": "root",
      "children": [
        22
      ]
    }
  ],
  "animations": [
    {
      "name": "idle",
      "samplers": [
        {
          "input": 0,
          "output": 1,
          "interpolation": "LINEAR"
        },
        {
          "input": 2,
          "output": 3,
          "interpolation": "LINEAR"
        },
        {
          "input": 4,
          "output": 5,
          "interpolation": "LINEAR"
        },
        {
          "input": 19,
          "output": 20,
          "interpolation": "LINEAR"
        },
        {
          "input": 6,
          "output": 7,
          "interpolation": "LINEAR"
        },
        {
          "input": 8,
          "output": 9,
          "interpolation": "LINEAR"
        },
        {
          "input": 21,
          "output": 22,
          "interpolation": "LINEAR"
        },
        {
          "input": 10,
          "output": 11,
          "interpolation": "LINEAR"
        },
        {
          "input": 23,
          "output": 24,
          "interpolation": "LINEAR"
        }
      ],
      "channels": [
        {
          "sampler": 0,
          "target": {
            "node": 22,
            "path": "rotation"
          }
        },
        {
          "sampler": 1,
          "target": {
            "node": 22,
            "path": "translation"
          }
        },
        {
          "sampler": 2,
          "target": {
            "node": 22,
            "path": "scale"
          }
        },
        {
          "sampler": 3,
          "target": {
            "node": 3,
            "path": "rotation"
          }
        },
        {
          "sampler": 4,
          "target": {
            "node": 6,
            "path": "rotation"
          }
        },
        {
          "sampler": 5,
          "target": {
            "node": 9,
            "path": "rotation"
          }
        },
        {
          "sampler": 6,
          "target": {
            "node": 12,
            "path": "rotation"
          }
        },
        {
          "sampler": 7,
          "target": {
            "node": 15,
            "path": "rotation"
          }
        },
        {
          "sampler": 8,
          "target": {
            "node": 18,
            "path": "rotation"
          }
        }
      ]
    },
    {
      "name": "swim",
      "samplers": [
        {
          "input": 25,
          "output": 26,
          "interpolation": "LINEAR"
        },
        {
          "input": 27,
          "output": 28,
          "interpolation": "LINEAR"
        },
        {
          "input": 12,
          "output": 5,
          "interpolation": "LINEAR"
        },
        {
          "input": 13,
          "output": 14,
          "interpolation": "LINEAR"
        },
        {
          "input": 15,
          "output": 16,
          "interpolation": "LINEAR"
        },
        {
          "input": 29,
          "output": 30,
          "interpolation": "LINEAR"
        },
        {
          "input": 31,
          "output": 32,
          "interpolation": "LINEAR"
        },
        {
          "input": 33,
          "output": 34,
          "interpolation": "LINEAR"
        },
        {
          "input": 17,
          "output": 18,
          "interpolation": "LINEAR"
        }
      ],
      "channels": [
        {
          "sampler": 0,
          "target": {
            "node": 22,
            "path": "rotation"
          }
        },
        {
          "sampler": 1,
          "target": {
            "node": 22,
            "path": "translation"
          }
        },
        {
          "sampler": 2,
          "target": {
            "node": 22,
            "path": "scale"
          }
        },
        {
          "sampler": 3,
          "target": {
            "node": 3,
            "path": "rotation"
          }
        },
        {
          "sampler": 4,
          "target": {
            "node": 6,
            "path": "rotation"
          }
        },
        {
          "sampler": 5,
          "target": {
            "node": 9,
            "path": "rotation"
          }
        },
        {
          "sampler": 6,
          "target": {
            "node": 12,
            "path": "rotation"
          }
        },
        {
          "sampler": 7,
          "target": {
            "node": 15,
            "path": "rotation"
          }
        },
        {
          "sampler": 8,
          "target": {
            "node": 18,
            "path": "rotation"
          }
        }
      ]
    }
  ],
  "scenes": [
    {
      "name": "blockbench_export",
      "nodes": [
        23
      ]
    }
  ],
  "scene": 0
}