{
  "asset": {
    "generator": "glTF-Transform v4.1.1",
    "version": "2.0"
  },
  "accessors": [
    {
      "type": "SCALAR",
      "componentType": 5126,
      "count": 3,
      "max": [
        2
      ],
      "min": [
        0
      ],
      "bufferView": 0,
      "byteOffset": 0
    },
    {
      "type": "VEC4",
      "componentType": 5126,
      "count": 3,
      "bufferView": 0,
      "byteOffset": 12
    },
    {
      "type": "VEC3",
      "componentType": 5126,
      "count": 3,
      "bufferView": 0,
      "byteOffset": 60
    },
    {
      "type": "VEC4",
      "componentType": 5126,
      "count": 3,
      "bufferView": 0,
      "byteOffset": 96
    },
    {
      "type": "SCALAR",
      "componentType": 5126,
      "count": 25,
      "max": [
        0.5
      ],
      "min": [
        0
      ],
      "bufferView": 0,
      "byteOffset": 144
    },
    {
      "type": "VEC3",
      "componentType": 5126,
      "count": 25,
      "bufferView": 0,
      "byteOffset": 244
    },
    {
      "type": "SCALAR",
      "componentType": 5126,
      "count": 14,
      "max": [
        0.5
      ],
      "min": [
        0
      ],
      "bufferView": 0,
      "byteOffset": 544
    },
    {
      "type": "VEC4",
      "componentType": 5126,
      "count": 14,
      "bufferView": 0,
      "byteOffset": 600
    },
    {
      "type": "SCALAR",
      "componentType": 5126,
      "count": 14,
      "max": [
        0.5
      ],
      "min": [
        0
      ],
      "bufferView": 0,
      "byteOffset": 824
    },
    {
      "type": "VEC4",
      "componentType": 5126,
      "count": 14,
      "bufferView": 0,
      "byteOffset": 880
    },
    {
      "type": "VEC4",
      "componentType": 5126,
      "count": 14,
      "bufferView": 0,
      "byteOffset": 1104
    },
    {
      "type": "SCALAR",
      "componentType": 5126,
      "count": 24,
      "max": [
        2
      ],
      "min": [
        0
      ],
      "bufferView": 0,
      "byteOffset": 1328
    },
    {
      "type": "VEC3",
      "componentType": 5126,
      "count": 24,
      "bufferView": 0,
      "byteOffset": 1424
    },
    {
      "type": "SCALAR",
      "componentType": 5126,
      "count": 23,
      "max": [
        0.5
      ],
      "min": [
        0
      ],
      "bufferView": 0,
      "byteOffset": 1712
    },
    {
      "type": "VEC4",
      "componentType": 5126,
      "count": 23,
      "bufferView": 0,
      "byteOffset": 1804
    },
    {
      "type": "SCALAR",
      "componentType": 5123,
      "count": 468,
      "bufferView": 1,
      "byteOffset": 0
    },
    {
      "type": "SCALAR",
      "componentType": 5123,
      "count": 72,
      "bufferView": 1,
      "byteOffset": 936
    },
    {
      "type": "VEC3",
      "componentType": 5126,
      "count": 312,
      "max": [
        1.15625,
        1.90625,
        1.15625
      ],
      "min": [
        -1.15625,
        -1.03125,
        -0.65625
      ],
      "bufferView": 2,
      "byteOffset": 0
    },
    {
      "type": "VEC3",
      "componentType": 5126,
      "count": 312,
      "bufferView": 2,
      "byteOffset": 12
    },
    {
      "type": "VEC2",
      "componentType": 5126,
      "count": 312,
      "bufferView": 2,
      "byteOffset": 24
    },
    {
      "type": "VEC3",
      "componentType": 5126,
      "count": 48,
      "max": [
        0.21875,
        0.15625,
        0.15625
      ],
      "min": [
        -0.53125,
        -0.53125,
        -0.15625
      ],
      "bufferView": 3,
      "byteOffset": 0
    },
    {
      "type": "VEC2",
      "componentType": 5126,
      "count": 48,
      "bufferView": 3,
      "byteOffset": 12
    },
    {
      "type": "VEC3",
      "componentType": 5126,
      "count": 48,
      "bufferView": 3,
      "byteOffset": 20
    },
    {
      "type": "VEC2",
      "componentType": 5126,
      "count": 48,
      "bufferView": 4,
      "byteOffset": 0
    },
    {
      "type": "VEC3",
      "componentType": 5126,
      "count": 48,
      "max": [
        0.53125,
        0.15625,
        0.15625
      ],
      "min": [
        -0.21875,
        -0.53125,
        -0.15625
      ],
      "bufferView": 4,
      "byteOffset": 8
    }
  ],
  "bufferViews": [
    {
      "buffer": 0,
      "byteOffset": 0,
      "byteLength": 2172
    },
    {
      "buffer": 0,
      "byteOffset": 2172,
      "byteLength": 1080,
      "target": 34963
    },
    {
      "buffer": 0,
      "byteOffset": 3252,
      "byteLength": 9984,
      "byteStride": 32,
      "target": 34962
    },
    {
      "buffer": 0,
      "byteOffset": 13236,
      "byteLength": 1536,
      "byteStride": 32,
      "target": 34962
    },
    {
      "buffer": 0,
      "byteOffset": 14772,
      "byteLength": 960,
      "byteStride": 20,
      "target": 34962
    }
  ],
  "samplers": [
    {
      "magFilter": 9728,
      "minFilter": 9728,
      "wrapS": 33071,
      "wrapT": 33071
    }
  ],
  "textures": [
    {
      "source": 0,
      "sampler": 0
    }
  ],
  "images": [
    {
      "mimeType": "image/png",
      "uri": "baseColor.png"
    }
  ],
  "buffers": [
    {
      "uri": "stalker.bin",
      "byteLength": 15732
    }
  ],
  "materials": [
    {
      "alphaMode": "MASK",
      "alphaCutoff": 0.05,
      "doubleSided": true,
      "pbrMetallicRoughness": {
        "metallicFactor": 0,
        "baseColorTexture": {
          "index": 0
        }
      }
    }
  ],
  "meshes": [
    {
      "primitives": [
        {
          "attributes": {
            "POSITION": 17,
            "NORMAL": 18,
            "TEXCOORD_0": 19
          },
          "mode": 4,
          "material": 0,
          "indices": 15
        }
      ]
    },
    {
      "primitives": [
        {
          "attributes": {
            "POSITION": 20,
            "TEXCOORD_0": 21,
            "NORMAL": 22
          },
          "mode": 4,
          "material": 0,
          "indices": 16
        }
      ]
    },
    {
      "primitives": [
        {
          "attributes": {
            "TEXCOORD_0": 23,
            "POSITION": 24,
            "NORMAL": 22
          },
          "mode": 4,
          "material": 0,
          "indices": 16
        }
      ]
    },
    {
      "primitives": [
        {
          "attributes": {
            "POSITION": 20,
            "NORMAL": 22,
            "TEXCOORD_0": 21
          },
          "mode": 4,
          "material": 0,
          "indices": 16
        }
      ]
    },
    {
      "primitives": [
        {
          "attributes": {
            "POSITION": 24,
            "NORMAL": 22,
            "TEXCOORD_0": 23
          },
          "mode": 4,
          "material": 0,
          "indices": 16
        }
      ]
    }
  ],
  "nodes": [
    {
      "name": "cube",
      "translation": [
        0,
        1.03125,
        0
      ],
      "mesh": 0
    },
    {
      "name": "body",
      "children": [
        0
      ]
    },
    {
      "name": "cube",
      "translation": [
        -0.2187500000000001,
        0,
        0
      ],
      "mesh": 1
    },
    {
      "name": "leg_front_left",
      "rotation": [
        0,
        0,
        -0.19509032201612825,
        0.9807852804032304
      ],
      "children": [
        2
      ]
    },
    {
      "name": "leg_front_left_ext",
      "translation": [
        -0.375,
        -0.0625,
        0.0625
      ],
      "rotation": [
        0,
        -0.3826834323650898,
        0,
        0.9238795325112867
      ],
      "children": [
        3
      ]
    },
    {
      "name": "cube",
      "translation": [
        0.2187500000000001,
        0,
        0
      ],
      "mesh": 2
    },
    {
      "name": "leg_front_right",
      "rotation": [
        0,
        0,
        0.19509032201612825,
        0.9807852804032304
      ],
      "children": [
        5
      ]
    },
    {
      "name": "leg_front_right_ext",
      "translation": [
        0.375,
        -0.0625,
        0.0625
      ],
      "rotation": [
        0,
        0.3826834323650898,
        0,
        0.9238795325112867
      ],
      "children": [
        6
      ]
    },
    {
      "name": "legs_front",
      "translation": [
        0,
        0.3125,
        -0.4375
      ],
      "children": [
        4,
        7
      ]
    },
    {
      "name": "cube",
      "translation": [
        -0.2187500000000001,
        0,
        0
      ],
      "mesh": 3
    },
    {
      "name": "leg_back_left",
      "rotation": [
        0,
        0,
        -0.19509032201612825,
        0.9807852804032304
      ],
      "children": [
        9
      ]
    },
    {
      "name": "leg_back_left_ext",
      "translation": [
        -0.375,
        0.25,
        0.375
      ],
      "rotation": [
        0,
        0.3826834323650898,
        0,
        0.9238795325112867
      ],
      "children": [
        10
      ]
    },
    {
      "name": "cube",
      "translation": [
        0.2187500000000001,
        0,
        0
      ],
      "mesh": 4
    },
    {
      "name": "leg_back_right",
      "rotation": [
        0,
        0,
        0.19509032201612825,
        0.9807852804032304
      ],
      "children": [
        12
      ]
    },
    {
      "name": "leg_back_right_ext",
      "translation": [
        0.375,
        -0.0625,
        -0.0625
      ],
      "rotation": [
        0,
        -0.3826834323650898,
        0,
        0.9238795325112867
      ],
      "children": [
        13
      ]
    },
    {
      "name": "legs_back",
      "translation": [
        0,
        0.3125,
        0.4375
      ],
      "children": [
        14
      ]
    },
    {
      "name": "body_main",
      "translation": [
        0,
        0.09375,
        0
      ],
      "children": [
        1
      ]
    }
  ],
  "animations": [
    {
      "name": "idle",
      "samplers": [
        {
          "input": 11,
          "output": 12,
          "interpolation": "LINEAR"
        },
        {
          "input": 0,
          "output": 1,
          "interpolation": "LINEAR"
        },
        {
          "input": 0,
          "output": 2,
          "interpolation": "LINEAR"
        },
        {
          "input": 0,
          "output": 3,
          "interpolation": "LINEAR"
        },
        {
          "input": 0,
          "output": 2,
          "interpolation": "LINEAR"
        },
        {
          "input": 0,
          "output": 1,
          "interpolation": "LINEAR"
        },
        {
          "input": 0,
          "output": 2,
          "interpolation": "LINEAR"
        },
        {
          "input": 0,
          "output": 3,
          "interpolation": "LINEAR"
        },
        {
          "input": 0,
          "output": 2,
          "interpolation": "LINEAR"
        }
      ],
      "channels": [
        {
          "sampler": 0,
          "target": {
            "node": 1,
            "path": "translation"
          }
        },
        {
          "sampler": 1,
          "target": {
            "node": 3,
            "path": "rotation"
          }
        },
        {
          "sampler": 2,
          "target": {
            "node": 3,
            "path": "translation"
          }
        },
        {
          "sampler": 3,
          "target": {
            "node": 6,
            "path": "rotation"
          }
        },
        {
          "sampler": 4,
          "target": {
            "node": 6,
            "path": "translation"
          }
        },
        {
          "sampler": 5,
          "target": {
            "node": 10,
            "path": "rotation"
          }
        },
        {
          "sampler": 6,
          "target": {
            "node": 10,
            "path": "translation"
          }
        },
        {
          "sampler": 7,
          "target": {
            "node": 13,
            "path": "rotation"
          }
        },
        {
          "sampler": 8,
          "target": {
            "node": 13,
            "path": "translation"
          }
        }
      ]
    },
    {
      "name": "walk",
      "samplers": [
        {
          "input": 13,
          "output": 14,
          "interpolation": "LINEAR"
        },
        {
          "input": 4,
          "output": 5,
          "interpolation": "LINEAR"
        },
        {
          "input": 6,
          "output": 7,
          "interpolation": "LINEAR"
        },
        {
          "input": 8,
          "output": 9,
          "interpolation": "LINEAR"
        },
        {
          "input": 6,
          "output": 10,
          "interpolation": "LINEAR"
        }
      ],
      "channels": [
        {
          "sampler": 0,
          "target": {
            "node": 1,
            "path": "rotation"
          }
        },
        {
          "sampler": 1,
          "target": {
            "node": 1,
            "path": "translation"
          }
        },
        {
          "sampler": 2,
          "target": {
            "node": 4,
            "path": "rotation"
          }
        },
        {
          "sampler": 3,
          "target": {
            "node": 7,
            "path": "rotation"
          }
        },
        {
          "sampler": 4,
          "target": {
            "node": 14,
            "path": "rotation"
          }
        }
      ]
    }
  ],
  "scenes": [
    {
      "name": "blockbench_export",
      "nodes": [
        16,
        8,
        15,
        11
      ]
    }
  ],
  "scene": 0
}